<?xml version="1.0" encoding="UTF-8" standalone="no"?>
<svg
   xmlns:dc="http://purl.org/dc/elements/1.1/"
   xmlns:cc="http://creativecommons.org/ns#"
   xmlns:rdf="http://www.w3.org/1999/02/22-rdf-syntax-ns#"
   xmlns:svg="http://www.w3.org/2000/svg"
   xmlns="http://www.w3.org/2000/svg"
   xmlns:xlink="http://www.w3.org/1999/xlink"
   xmlns:sodipodi="http://sodipodi.sourceforge.net/DTD/sodipodi-0.dtd"
   xmlns:inkscape="http://www.inkscape.org/namespaces/inkscape"
   height="305.02097"
   width="306.4751"
   version="1.1"
   id="svg4552"
   sodipodi:docname="film-porn.svg"
   inkscape:version="0.91 r13725">
  <metadata
     id="metadata4556">
    <rdf:RDF>
      <cc:Work
         rdf:about="">
        <dc:format>image/svg+xml</dc:format>
        <dc:type
           rdf:resource="http://purl.org/dc/dcmitype/StillImage" />
        <dc:title></dc:title>
      </cc:Work>
    </rdf:RDF>
  </metadata>
  <sodipodi:namedview
     pagecolor="#ffffff"
     bordercolor="#666666"
     borderopacity="1"
     objecttolerance="10"
     gridtolerance="10"
     guidetolerance="10"
     inkscape:pageopacity="0"
     inkscape:pageshadow="2"
     inkscape:window-width="1916"
     inkscape:window-height="1035"
     id="namedview4554"
     showgrid="false"
     fit-margin-top="0"
     fit-margin-left="0"
     fit-margin-right="0"
     fit-margin-bottom="0"
     inkscape:zoom="1"
     inkscape:cx="188.89913"
     inkscape:cy="58.780494"
     inkscape:window-x="24"
     inkscape:window-y="0"
     inkscape:window-maximized="0"
     inkscape:current-layer="layer1-7" />
  <defs
     id="defs4512">
    <linearGradient
       id="a">
      <stop
         stop-color="#fdfdfd"
         offset="0"
         id="stop4485" />
      <stop
         stop-color="#d4d4d4"
         offset="1"
         id="stop4487" />
    </linearGradient>
    <radialGradient
       id="c"
       cx="27.216"
       gradientUnits="userSpaceOnUse"
       cy="35.673"
       r="19.570999"
       gradientTransform="matrix(2.8831,0,0,2.136,-64.968,-52.486)">
      <stop
         stop-color="#5d5d5d"
         offset="0"
         id="stop4490" />
      <stop
         stop-color="#444"
         offset="1"
         id="stop4492" />
    </radialGradient>
    <linearGradient
       id="d"
       y2="49.143002"
       gradientUnits="userSpaceOnUse"
       y1="13.143"
       x2="21.535999"
       x1="5.4629998">
      <stop
         stop-color="#fff"
         offset="0"
         id="stop4495" />
      <stop
         stop-color="#fff"
         stop-opacity="0"
         offset="1"
         id="stop4497" />
    </linearGradient>
    <radialGradient
       id="b"
       cx="24.643"
       gradientUnits="userSpaceOnUse"
       cy="44.285999"
       r="22.070999"
       gradientTransform="matrix(1,0,0,0.20712,0,35.113)">
      <stop
         offset="0"
         id="stop4500" />
      <stop
         stop-opacity="0"
         offset="1"
         id="stop4502" />
    </radialGradient>
    <linearGradient
       id="g"
       y2="11.107"
       gradientUnits="userSpaceOnUse"
       y1="15.929"
       x2="7.9289999"
       x1="10.679">
      <stop
         stop-color="#939393"
         offset="0"
         id="stop4505" />
      <stop
         stop-color="#d9d9d9"
         offset="1"
         id="stop4507" />
    </linearGradient>
    <linearGradient
       id="e"
       y2="18.693001"
       xlink:href="#a"
       gradientUnits="userSpaceOnUse"
       y1="6.1100001"
       x2="18.773001"
       x1="2.7609999" />
    <linearGradient
       id="f"
       y2="18.693001"
       xlink:href="#a"
       gradientUnits="userSpaceOnUse"
       y1="6.1100001"
       gradientTransform="translate(-0.6,-0.578)"
       x2="18.773001"
       x1="2.7609999" />
    <linearGradient
       id="linearGradient3241">
      <stop
         offset="0"
         style="stop-color:#e5f400"
         id="stop3243" />
      <stop
         offset="1"
         style="stop-color:#b6c200"
         id="stop3245" />
    </linearGradient>
    <radialGradient
       inkscape:collect="always"
       r="7979.7"
       gradientTransform="matrix(-1.1402,0.079971,-0.0094239,-0.1686,-57690,14875)"
       cx="-30002"
       cy="8914.6"
       gradientUnits="userSpaceOnUse"
       id="radialGradient4456-9">
      <stop
         offset="0"
         style="stop-color:#cb1f1d"
         id="stop4390-6" />
      <stop
         offset="1"
         style="stop-color:#990000"
         id="stop4392-0" />
    </radialGradient>
    <radialGradient
       inkscape:collect="always"
       r="8063.3"
       gradientTransform="matrix(0.066414,-0.54237,0.87876,0.10765,-41444,318.43)"
       cx="-22091"
       cy="20792"
       gradientUnits="userSpaceOnUse"
       id="radialGradient4458-3">
      <stop
         offset="0"
         style="stop-color:#cb1f1d"
         id="stop4382-2" />
      <stop
         offset="1"
         style="stop-color:#990000"
         id="stop4384-4" />
    </radialGradient>
    <filter
       inkscape:collect="always"
       color-interpolation-filters="sRGB"
       height="3.2444"
       x="-5.8712"
       y="-1.1222"
       width="12.742"
       id="filter4366-5">
      <feGaussianBlur
         inkscape:collect="always"
         stdDeviation="115.49482"
         id="feGaussianBlur4368-8" />
    </filter>
    <filter
       inkscape:collect="always"
       color-interpolation-filters="sRGB"
       height="2.3677"
       x="-3.498"
       y="-.68385"
       width="7.9959"
       id="filter4362-8">
      <feGaussianBlur
         inkscape:collect="always"
         stdDeviation="115.49482"
         id="feGaussianBlur4364-1" />
    </filter>
    <filter
       inkscape:collect="always"
       color-interpolation-filters="sRGB"
       height="2.3771"
       x="-8.8865"
       y="-.68853"
       width="18.773"
       id="filter4358-2">
      <feGaussianBlur
         inkscape:collect="always"
         stdDeviation="115.49482"
         id="feGaussianBlur4360-1" />
    </filter>
    <filter
       inkscape:collect="always"
       color-interpolation-filters="sRGB"
       height="2.162"
       x="-6.8453"
       y="-.58099"
       width="14.691"
       id="filter4354-4">
      <feGaussianBlur
         inkscape:collect="always"
         stdDeviation="115.49482"
         id="feGaussianBlur4356-9" />
    </filter>
    <filter
       inkscape:collect="always"
       color-interpolation-filters="sRGB"
       height="2.0104"
       x="-5.4256"
       y="-.50521"
       width="11.851"
       id="filter4350-8">
      <feGaussianBlur
         inkscape:collect="always"
         stdDeviation="115.49482"
         id="feGaussianBlur4352-2" />
    </filter>
    <filter
       inkscape:collect="always"
       color-interpolation-filters="sRGB"
       height="2.0609"
       x="-4.3178"
       y="-.53044"
       width="9.6356"
       id="filter4346-4">
      <feGaussianBlur
         inkscape:collect="always"
         stdDeviation="115.49482"
         id="feGaussianBlur4348-5" />
    </filter>
    <filter
       inkscape:collect="always"
       color-interpolation-filters="sRGB"
       height="2.0253"
       x="-6.5291"
       y="-.51264"
       width="14.058"
       id="filter4342-2">
      <feGaussianBlur
         inkscape:collect="always"
         stdDeviation="115.49482"
         id="feGaussianBlur4344-9" />
    </filter>
    <filter
       inkscape:collect="always"
       color-interpolation-filters="sRGB"
       height="2.0217"
       x="-5.3616"
       y="-.51086"
       width="11.723"
       id="filter4338-9">
      <feGaussianBlur
         inkscape:collect="always"
         stdDeviation="115.49482"
         id="feGaussianBlur4340-8" />
    </filter>
    <filter
       inkscape:collect="always"
       color-interpolation-filters="sRGB"
       height="2.2434"
       x="-6.061"
       y="-.62168"
       width="13.122"
       id="filter4334-3">
      <feGaussianBlur
         inkscape:collect="always"
         stdDeviation="115.49482"
         id="feGaussianBlur4336-8" />
    </filter>
    <filter
       inkscape:collect="always"
       color-interpolation-filters="sRGB"
       height="2.1038"
       x="-7.6772"
       y="-.55189"
       width="16.354"
       id="filter4330-6">
      <feGaussianBlur
         inkscape:collect="always"
         stdDeviation="115.49482"
         id="feGaussianBlur4332-9" />
    </filter>
    <filter
       inkscape:collect="always"
       color-interpolation-filters="sRGB"
       height="2.1117"
       x="-3.9187"
       y="-.55584"
       width="8.8374"
       id="filter4326-8">
      <feGaussianBlur
         inkscape:collect="always"
         stdDeviation="115.49482"
         id="feGaussianBlur4328-6" />
    </filter>
    <filter
       inkscape:collect="always"
       color-interpolation-filters="sRGB"
       height="2.201"
       x="-7.7238"
       y="-.60048"
       width="16.448"
       id="filter4322-6">
      <feGaussianBlur
         inkscape:collect="always"
         stdDeviation="115.49482"
         id="feGaussianBlur4324-2" />
    </filter>
    <filter
       inkscape:collect="always"
       color-interpolation-filters="sRGB"
       height="3.2444"
       x="-5.8712"
       y="-1.1222"
       width="12.742"
       id="filter4318-3">
      <feGaussianBlur
         inkscape:collect="always"
         stdDeviation="115.49482"
         id="feGaussianBlur4320-8" />
    </filter>
    <filter
       inkscape:collect="always"
       color-interpolation-filters="sRGB"
       height="2.3677"
       x="-3.498"
       y="-.68385"
       width="7.9959"
       id="filter4314-2">
      <feGaussianBlur
         inkscape:collect="always"
         stdDeviation="115.49482"
         id="feGaussianBlur4316-6" />
    </filter>
    <filter
       inkscape:collect="always"
       color-interpolation-filters="sRGB"
       height="2.3771"
       x="-8.8865"
       y="-.68853"
       width="18.773"
       id="filter4310-2">
      <feGaussianBlur
         inkscape:collect="always"
         stdDeviation="115.49482"
         id="feGaussianBlur4312-7" />
    </filter>
    <filter
       inkscape:collect="always"
       color-interpolation-filters="sRGB"
       height="2.162"
       x="-6.8453"
       y="-.58099"
       width="14.691"
       id="filter4306-5">
      <feGaussianBlur
         inkscape:collect="always"
         stdDeviation="115.49482"
         id="feGaussianBlur4308-7" />
    </filter>
    <filter
       inkscape:collect="always"
       color-interpolation-filters="sRGB"
       height="2.0104"
       x="-5.4256"
       y="-.50521"
       width="11.851"
       id="filter4302-8">
      <feGaussianBlur
         inkscape:collect="always"
         stdDeviation="115.49482"
         id="feGaussianBlur4304-2" />
    </filter>
    <filter
       inkscape:collect="always"
       color-interpolation-filters="sRGB"
       height="2.0609"
       x="-4.3178"
       y="-.53044"
       width="9.6356"
       id="filter4298-7">
      <feGaussianBlur
         inkscape:collect="always"
         stdDeviation="115.49482"
         id="feGaussianBlur4300-8" />
    </filter>
    <filter
       inkscape:collect="always"
       color-interpolation-filters="sRGB"
       height="2.0253"
       x="-6.5291"
       y="-.51264"
       width="14.058"
       id="filter4294-0">
      <feGaussianBlur
         inkscape:collect="always"
         stdDeviation="115.49482"
         id="feGaussianBlur4296-2" />
    </filter>
    <filter
       inkscape:collect="always"
       color-interpolation-filters="sRGB"
       height="2.0217"
       x="-5.3616"
       y="-.51086"
       width="11.723"
       id="filter4290-0">
      <feGaussianBlur
         inkscape:collect="always"
         stdDeviation="115.49482"
         id="feGaussianBlur4292-8" />
    </filter>
    <filter
       inkscape:collect="always"
       color-interpolation-filters="sRGB"
       height="2.2434"
       x="-6.061"
       y="-.62168"
       width="13.122"
       id="filter4286-9">
      <feGaussianBlur
         inkscape:collect="always"
         stdDeviation="115.49482"
         id="feGaussianBlur4288-2" />
    </filter>
    <filter
       inkscape:collect="always"
       color-interpolation-filters="sRGB"
       height="2.1038"
       x="-7.6772"
       y="-.55189"
       width="16.354"
       id="filter4282-8">
      <feGaussianBlur
         inkscape:collect="always"
         stdDeviation="115.49482"
         id="feGaussianBlur4284-2" />
    </filter>
    <filter
       inkscape:collect="always"
       color-interpolation-filters="sRGB"
       height="2.1117"
       x="-3.9187"
       y="-.55584"
       width="8.8374"
       id="filter4278-0">
      <feGaussianBlur
         inkscape:collect="always"
         stdDeviation="115.49482"
         id="feGaussianBlur4280-5" />
    </filter>
    <filter
       inkscape:collect="always"
       color-interpolation-filters="sRGB"
       height="2.201"
       x="-7.7238"
       y="-.60048"
       width="16.448"
       id="filter4274-5">
      <feGaussianBlur
         inkscape:collect="always"
         stdDeviation="115.49482"
         id="feGaussianBlur4276-2" />
    </filter>
    <filter
       inkscape:collect="always"
       color-interpolation-filters="sRGB"
       height="3.2444"
       x="-5.8712"
       y="-1.1222"
       width="12.742"
       id="filter4270-7">
      <feGaussianBlur
         inkscape:collect="always"
         stdDeviation="115.49482"
         id="feGaussianBlur4272-6" />
    </filter>
    <filter
       inkscape:collect="always"
       color-interpolation-filters="sRGB"
       height="2.3677"
       x="-3.498"
       y="-.68385"
       width="7.9959"
       id="filter4266-7">
      <feGaussianBlur
         inkscape:collect="always"
         stdDeviation="115.49482"
         id="feGaussianBlur4268-8" />
    </filter>
    <filter
       inkscape:collect="always"
       color-interpolation-filters="sRGB"
       height="2.3771"
       x="-8.8865"
       y="-.68853"
       width="18.773"
       id="filter4262-7">
      <feGaussianBlur
         inkscape:collect="always"
         stdDeviation="115.49482"
         id="feGaussianBlur4264-8" />
    </filter>
    <filter
       inkscape:collect="always"
       color-interpolation-filters="sRGB"
       height="2.162"
       x="-6.8453"
       y="-.58099"
       width="14.691"
       id="filter4258-1">
      <feGaussianBlur
         inkscape:collect="always"
         stdDeviation="115.49482"
         id="feGaussianBlur4260-6" />
    </filter>
    <filter
       inkscape:collect="always"
       color-interpolation-filters="sRGB"
       height="2.0104"
       x="-5.4256"
       y="-.50521"
       width="11.851"
       id="filter4254-0">
      <feGaussianBlur
         inkscape:collect="always"
         stdDeviation="115.49482"
         id="feGaussianBlur4256-9" />
    </filter>
    <filter
       inkscape:collect="always"
       color-interpolation-filters="sRGB"
       height="2.0609"
       x="-4.3178"
       y="-.53044"
       width="9.6356"
       id="filter4250-5">
      <feGaussianBlur
         inkscape:collect="always"
         stdDeviation="115.49482"
         id="feGaussianBlur4252-8" />
    </filter>
    <filter
       inkscape:collect="always"
       color-interpolation-filters="sRGB"
       height="2.0253"
       x="-6.5291"
       y="-.51264"
       width="14.058"
       id="filter4246-9">
      <feGaussianBlur
         inkscape:collect="always"
         stdDeviation="115.49482"
         id="feGaussianBlur4248-0" />
    </filter>
    <filter
       inkscape:collect="always"
       color-interpolation-filters="sRGB"
       height="2.0217"
       x="-5.3616"
       y="-.51086"
       width="11.723"
       id="filter4242-0">
      <feGaussianBlur
         inkscape:collect="always"
         stdDeviation="115.49482"
         id="feGaussianBlur4244-0" />
    </filter>
    <filter
       inkscape:collect="always"
       color-interpolation-filters="sRGB"
       height="2.2434"
       x="-6.061"
       y="-.62168"
       width="13.122"
       id="filter4238-7">
      <feGaussianBlur
         inkscape:collect="always"
         stdDeviation="115.49482"
         id="feGaussianBlur4240-2" />
    </filter>
    <filter
       inkscape:collect="always"
       color-interpolation-filters="sRGB"
       height="2.1038"
       x="-7.6772"
       y="-.55189"
       width="16.354"
       id="filter4234-5">
      <feGaussianBlur
         inkscape:collect="always"
         stdDeviation="115.49482"
         id="feGaussianBlur4236-5" />
    </filter>
    <filter
       inkscape:collect="always"
       color-interpolation-filters="sRGB"
       height="2.1117"
       x="-3.9187"
       y="-.55584"
       width="8.8374"
       id="filter4230-2">
      <feGaussianBlur
         inkscape:collect="always"
         stdDeviation="115.49482"
         id="feGaussianBlur4232-1" />
    </filter>
    <filter
       inkscape:collect="always"
       color-interpolation-filters="sRGB"
       height="2.201"
       x="-7.7238"
       y="-.60048"
       width="16.448"
       id="filter4226-4">
      <feGaussianBlur
         inkscape:collect="always"
         stdDeviation="115.49482"
         id="feGaussianBlur4228-8" />
    </filter>
    <filter
       inkscape:collect="always"
       color-interpolation-filters="sRGB"
       height="1.3632"
       x="-.019030"
       y="-.18159"
       width="1.0381"
       id="filter4402-6">
      <feGaussianBlur
         inkscape:collect="always"
         stdDeviation="128.31617"
         id="feGaussianBlur4404-4" />
    </filter>
    <filter
       inkscape:collect="always"
       x="-.059641"
       y="-.26859"
       width="1.1193"
       height="1.5372"
       id="filter4578">
      <feGaussianBlur
         inkscape:collect="always"
         stdDeviation="24.26484"
         id="feGaussianBlur4580" />
    </filter>
    <filter
       inkscape:collect="always"
       x="-.022044"
       y="-.22734"
       width="1.0441"
       height="1.4547"
       id="filter4586">
      <feGaussianBlur
         inkscape:collect="always"
         stdDeviation="13.470991"
         id="feGaussianBlur4588" />
    </filter>
    <filter
       inkscape:collect="always"
       x="-.037918"
       y="-.37660"
       width="1.0758"
       height="1.7532"
       id="filter4630">
      <feGaussianBlur
         inkscape:collect="always"
         stdDeviation="19.293363"
         id="feGaussianBlur4632" />
    </filter>
    <filter
       inkscape:collect="always"
       id="filter4896">
      <feGaussianBlur
         inkscape:collect="always"
         stdDeviation="0.7338946"
         id="feGaussianBlur4898" />
    </filter>
    <filter
       inkscape:collect="always"
       id="filter4900">
      <feGaussianBlur
         inkscape:collect="always"
         stdDeviation="0.7338946"
         id="feGaussianBlur4902" />
    </filter>
    <filter
       inkscape:collect="always"
       id="filter4904">
      <feGaussianBlur
         inkscape:collect="always"
         stdDeviation="0.7338946"
         id="feGaussianBlur4906" />
    </filter>
    <filter
       inkscape:collect="always"
       id="filter4908">
      <feGaussianBlur
         inkscape:collect="always"
         stdDeviation="0.7338946"
         id="feGaussianBlur4910" />
    </filter>
    <filter
       inkscape:collect="always"
       id="filter4912">
      <feGaussianBlur
         inkscape:collect="always"
         stdDeviation="0.7338946"
         id="feGaussianBlur4914" />
    </filter>
    <filter
       inkscape:collect="always"
       id="filter4916">
      <feGaussianBlur
         inkscape:collect="always"
         stdDeviation="0.7338946"
         id="feGaussianBlur4918" />
    </filter>
    <filter
       inkscape:collect="always"
       x="-.050011"
       y="-.14680"
       width="1.1"
       height="1.2936"
       id="filter4926">
      <feGaussianBlur
         inkscape:collect="always"
         stdDeviation="6.7005253"
         id="feGaussianBlur4928" />
    </filter>
  </defs>
  <g
     id="g4577"
     transform="matrix(6.9407415,0,0,6.3552904,-17.754691,-0.03363093)">
    <path
       id="path4514"
       transform="translate(0,-0.857)"
       display="block"
       d="m 46.714,44.286 a 22.0715,4.5711036 0 1 1 -44.143,0 22.0715,4.5711036 0 1 1 44.143,0 z"
       style="color:#000000;display:block;opacity:0.744;fill:url(#b)"
       inkscape:connector-curvature="0" />
    <rect
       id="rect4516"
       display="block"
       x="5.4289999"
       y="16.570999"
       width="38.143002"
       ry="1.143"
       rx="1.143"
       height="28"
       style="color:#000000;display:block;fill:url(#c);stroke:#1b1b1b" />
    <rect
       id="rect4518"
       display="block"
       x="6.3920002"
       y="17.489"
       width="36.073002"
       ry="0.27399999"
       rx="0.27399999"
       height="26.059999"
       style="color:#000000;display:block;opacity:0.31199999;fill:none;stroke:url(#d)" />
    <g
       id="g4528"
       transform="matrix(-0.97271112,0.23201954,0.23201954,0.97271112,45.786005,5.1105872)">
      <rect
         id="rect4520"
         display="block"
         x="1.705"
         y="10.353"
         height="6.5089998"
         width="39.806"
         ry="1.143"
         rx="1.143"
         transform="rotate(-12.991)"
         style="color:#000000;display:block;fill:url(#e);stroke:#2b2b2b" />
      <path
         id="path4522"
         d="m 9.19,8.97 -2.43,6.57 4.714,-1.286 2.429,-6.286 -4.714,1 z m 9.142,-2.072 -2.285,6.5 4.714,-1.143 2.286,-6.357 z m 9.572,-2.214 -2.286,6.428 4.714,-1.143 2.286,-6.285 z"
         inkscape:connector-curvature="0"
         style="fill-rule:evenodd" />
      <path
         id="path4524"
         display="block"
         d="m 39.413,2.018 c 0.229,0.156 0.401,0.364 0.469,0.657 l 0.732,3.075 -0.723,2 -4.688,1.085 2.281,-6.357 z"
         inkscape:connector-curvature="0"
         style="color:#000000;display:block" />
      <rect
         id="rect4526"
         display="block"
         x="2.6719999"
         y="11.327"
         height="4.6069999"
         width="37.842999"
         transform="rotate(-12.991)"
         rx="0.26499999"
         ry="0.26499999"
         style="color:#000000;display:block;fill:none;stroke:#ffffff;stroke-opacity:0.575" />
    </g>
    <rect
       id="rect4530"
       display="block"
       x="0.67000002"
       y="9.6850004"
       height="6.9419999"
       width="40.077"
       ry="1.143"
       rx="1.143"
       transform="rotate(-12.991)"
       style="color:#000000;display:block;fill:url(#f);stroke:#2e2e2e" />
    <path
       id="path4532"
       d="m 10.143,8.143 -2.429,6.571 4.715,-1.285 2.428,-6.286 z m 9.286,-2.357 -2.643,7 4.714,-1.143 2.643,-6.857 z m 9.642,-2.143 -2.571,7.143 4.714,-1.143 2.572,-7 z"
       inkscape:connector-curvature="0"
       style="fill-rule:evenodd" />
    <path
       id="path4534"
       display="block"
       d="m 41.295,0.978 c 0.229,0.156 0.401,0.363 0.468,0.656 l 0.661,2.647 -1.08,2.786 -5.116,1.228 2.352,-6.715 z"
       inkscape:connector-curvature="0"
       style="color:#000000;display:block" />
    <rect
       id="rect4536"
       display="block"
       x="1.637"
       y="10.659"
       height="4.915"
       width="38.199001"
       transform="rotate(-12.991)"
       rx="0.26499999"
       ry="0.26499999"
       style="color:#000000;display:block;fill:none;stroke:#ffffff;stroke-opacity:0.575" />
    <path
       id="path4538"
       d="m 6.536,10.893 v 7.786 a 0.96,0.96 0 0 0 0.857,0.928 h 7.893 c 0.863,0 1.274,-1.262 0.607,-1.928 L 9.679,10.393 C 8.714,9 6.536,9.679 6.536,10.893 Z"
       style="fill:url(#g);fill-rule:evenodd;stroke:#1b1b1b"
       inkscape:connector-curvature="0" />
    <path
       id="path4540"
       display="block"
       d="m 8.964,12.232 a 0.482,0.482 0 1 1 -0.964,0 0.482,0.482 0 1 1 0.964,0 z m 0,5.285 a 0.482,0.482 0 1 1 -0.964,0 0.482,0.482 0 1 1 0.964,0 z m 5.036,0 a 0.482,0.482 0 1 1 -0.964,0 0.482,0.482 0 1 1 0.964,0 z"
       inkscape:connector-curvature="0"
       style="color:#000000;display:block;fill:#ffffff" />
    <g
       transform="matrix(0.14407683,0,0,0.15734922,25.261489,18.801871)"
       inkscape:label="Capa 1"
       id="layer1-7">
      <g
         inkscape:label="Layer 1"
         id="layer1"
         transform="matrix(0.35346056,0.00201912,-0.00160208,0.44325324,-114.93573,-1.382611)">
        <ellipse
           transform="matrix(0.35782,0,0,0.33934,249.99,138.76)"
           style="fill:#000000;fill-opacity:0.91123998;stroke:#130206;stroke-width:0.1"
           id="path4622"
           cx="165.21986"
           cy="205.06383"
           rx="268.48227"
           ry="45.177303" />
        <g
           transform="matrix(0.034338,0,0,0.027977,1166,-144.74)"
           id="g4410">
          <path
             inkscape:connector-curvature="0"
             style="fill:url(#radialGradient4456-9);stroke:#9c0c1c;stroke-width:33.1269989"
             sodipodi:nodetypes="ccssscc"
             d="m -24884,12387 c 3117,770.85 8879.7,-1043.4 8879.7,-1043.4 -504.6,734.19 -4120.4,-2156.8 -6225.9,-2147.7 -641.16,2.7759 -1877.1,551.22 -2517.7,571.77 -1108,35.537 -1348.7,-724.01 -2456.5,-683.87 -1871,67.793 -5251.1,2532.8 -6084.6,2209.4 2393.8,875.41 6637.1,1582.9 8405,1093.8 z"
             id="path4078" />
          <path
             inkscape:connector-curvature="0"
             style="fill:url(#radialGradient4458-3);stroke:#83172d;stroke-width:68.22699738"
             sodipodi:nodetypes="cscsc"
             d="m -33373,11208 c 0,0 5735.4,1514.3 8323.1,1552.6 2855.9,42.285 9187.9,-1348 9187.9,-1348 -1572.3,-305.03 -3820.9,5499.9 -9073.7,5363.1 -4847.6,-126.22 -7443.9,-5712.2 -8437.3,-5567.7 z"
             id="path4080" />
          <path
             inkscape:connector-curvature="0"
             style="opacity:0.65366002;fill:#ffffff;stroke:#000000;stroke-width:0.42886999px"
             d="m -26515,13262 289.58,668.99 1447.9,-334.5 -96.527,-597.31 z"
             id="path4100" />
          <path
             d="m -23073,13242 -273.33,617.54 -1366.6,-308.77 91.109,-551.38 z"
             inkscape:connector-curvature="0"
             style="opacity:0.65366002;fill:#ffffff;stroke:#000000;stroke-width:0.40031999px"
             id="path4102" />
          <path
             inkscape:connector-curvature="0"
             style="opacity:0.53171004;fill:#ffffff;stroke:#000000;stroke-width:1px"
             d="m -27282,10039 2844.6,1163.7 c 0,0 2456.7,-1357.6 2198.1,-1293 -258.6,64.65 -2068.8,711.15 -2327.4,711.15 -258.6,0 -2715.3,-258.6 -2715.3,-258.6 z"
             id="path4104" />
          <path
             d="m -25563,11900 c 7.736,42.049 10.133,87.871 13.586,132.78 2.114,27.659 1.111,13.984 3.014,41.022 3.777,53.751 -26.954,66.966 -30.732,13.215 -1.818,-25.907 -0.846,-12.616 -2.929,-39.866 -3.012,-39.413 -4.9,-79.776 -11.609,-116.76 -8.689,-50.146 19.981,-80.54 28.67,-30.393 z"
             inkscape:connector-curvature="0"
             style="fill:#382e2e;stroke-width:0;filter:url(#filter4366-5)"
             id="path4106" />
          <path
             d="m -25490,11832 c 9.331,45.518 17.095,92.923 25.15,139.9 9.859,49.999 16.957,102.82 22.07,156.89 2.211,29.115 1.445,14.608 2.34,43.507 1.398,54.448 -29.731,59.341 -31.129,4.893 -0.305,-18.554 0.1,-8.205 -1.594,-30.941 -4.639,-49.792 -11.312,-98.26 -20.403,-144.22 -7.577,-44.192 -14.887,-88.762 -23.516,-131.75 -10.943,-47.368 16.14,-85.649 27.082,-38.279 z"
             inkscape:connector-curvature="0"
             style="fill:#382e2e;stroke-width:0;filter:url(#filter4362-8)"
             id="path4108" />
          <path
             d="m -25397,11851 0,177.81 0,142.93 c 0,54.557 -31.192,54.557 -31.192,0 l 0,-142.93 0,-177.81 c 0,-54.557 31.192,-54.557 31.192,0 z"
             inkscape:connector-curvature="0"
             style="fill:#382e2e;stroke-width:0;filter:url(#filter4358-2)"
             id="path4110" />
          <path
             d="m -25329,11856 c 6.365,73.44 7.298,148.85 8.439,223.64 0.762,60.215 0.981,120.46 1.162,180.7 0.163,54.556 -31.028,55.127 -31.192,0.571 -0.177,-59.462 -0.392,-118.93 -1.14,-178.37 -1.054,-69.471 -1.841,-139.52 -7.529,-207.83 -5.35,-52.929 24.911,-71.642 30.26,-18.713 z"
             inkscape:connector-curvature="0"
             style="fill:#382e2e;stroke-width:0;filter:url(#filter4354-4)"
             id="path4112" />
          <path
             d="m -25204,11841 c 10.276,65.941 14.121,136.01 17.016,205.85 2.657,80.475 3.036,161.26 3.247,241.96 0.01,9.842 0.02,19.685 0.03,29.527 0.06,54.558 -31.135,54.755 -31.192,0.198 0,-9.743 -0.02,-19.486 -0.03,-29.229 -0.203,-78.253 -0.557,-156.59 -3.086,-234.63 -2.673,-65.373 -6.266,-130.83 -15.977,-192.47 -6.06,-52.459 23.932,-73.655 29.992,-21.197 z"
             inkscape:connector-curvature="0"
             style="fill:#382e2e;stroke-width:0;filter:url(#filter4350-8)"
             id="path4114" />
          <path
             d="m -25028,11927 c 0.146,54.799 6.037,108.45 10.422,161.85 5.667,61.039 8.617,123.46 13.848,184.67 3.078,28.618 5.093,57.677 6.361,87.087 -1.086,-6.779 -2.172,-13.557 -3.258,-20.336 15.982,37.599 -5.514,93.507 -21.496,55.909 -2.088,-9.135 -4.175,-18.27 -6.263,-27.405 -1.154,-26.875 -3.047,-53.368 -5.88,-79.512 -5.113,-61.415 -8.311,-123.82 -13.88,-185.05 -4.799,-58.467 -11.072,-117.17 -11.046,-177.21 0,-54.557 31.192,-54.557 31.192,0 z"
             inkscape:connector-curvature="0"
             style="fill:#382e2e;stroke-width:0;filter:url(#filter4346-4)"
             id="path4116" />
          <path
             d="m -24877,11864 0,194.13 c -1.207,70.196 1.603,139.95 6.641,208.96 2.684,33.031 1.377,16.976 3.919,48.169 4.357,53.483 -26.221,68.723 -30.578,15.241 -2.589,-31.784 -1.24,-15.177 -4.046,-49.823 -5.271,-73.503 -8.386,-147.8 -7.128,-222.54 l 0,-194.13 c 0,-54.558 31.192,-54.558 31.192,0 z"
             inkscape:connector-curvature="0"
             style="fill:#382e2e;stroke-width:0;filter:url(#filter4342-2)"
             id="path4118" />
          <path
             d="m -24706,11867 c 0.414,78.599 2.161,157.24 5.77,235.35 4.919,72.713 8.852,145.81 14.364,218.27 4.077,53.618 -26.577,67.88 -30.654,14.263 -5.647,-74.294 -9.716,-149.24 -14.702,-223.82 -3.702,-81.011 -5.577,-162.55 -5.97,-244.06 0,-54.557 31.192,-54.557 31.192,0 z"
             inkscape:connector-curvature="0"
             style="fill:#382e2e;stroke-width:0;filter:url(#filter4338-9)"
             id="path4120" />
          <path
             d="m -24477,11940 c 0.03,65.708 -0.752,131.24 1.799,196.69 3.538,53.573 7.897,106.78 12.025,160.09 4.15,53.583 -26.485,68.099 -30.635,14.516 -4.317,-55.746 -8.918,-111.38 -12.449,-167.47 -0.644,-17.763 -1.572,-35.477 -1.932,-53.29 -1.012,-50.05 0.682,-100.44 0,-150.53 0,-54.557 31.192,-54.557 31.192,0 z"
             inkscape:connector-curvature="0"
             style="fill:#382e2e;stroke-width:0;filter:url(#filter4334-3)"
             id="path4122" />
          <path
             d="m -24238,11996 c 0.693,74.514 -0.922,148.87 -2.372,223.26 -0.12,64.87 -3.705,130.15 -2.057,195.01 1.228,54.473 -29.916,58.768 -31.144,4.295 -1.381,-67.616 1.547,-135.42 2.045,-203.02 1.426,-73.153 3.035,-146.26 2.336,-219.54 0,-54.557 31.192,-54.557 31.192,0 z"
             inkscape:connector-curvature="0"
             style="fill:#382e2e;stroke-width:0;filter:url(#filter4330-6)"
             id="path4124" />
          <path
             d="m -24123,11933 c 2.972,47.46 3.635,95.49 4.197,143.41 -0.247,60.792 3.292,121.15 9.179,180.04 1.033,7.348 1.931,14.819 3.098,22.043 1.719,10.644 4.52,24.434 7.13,34.088 1.063,3.936 2.213,7.778 3.56,11.142 0.421,1.05 1.733,3.285 1.634,1.827 -0.147,-2.181 -1.224,-3.223 -1.836,-4.835 21.38,13.402 13.718,88.194 -7.662,74.792 -3.387,-3.351 -7.033,-5.407 -10.16,-10.052 -14.254,-21.177 -20.856,-74.729 -26.059,-110.64 -6.313,-64.221 -10.306,-129.92 -10.063,-196.18 -0.516,-44.421 -1.082,-88.945 -3.786,-132.96 -3.626,-53.816 27.142,-66.5 30.768,-12.685 z"
             inkscape:connector-curvature="0"
             style="fill:#382e2e;stroke-width:0;filter:url(#filter4326-8)"
             id="path4126" />
          <path
             d="m -23936,11869 c 3.129,52.627 3.614,105.92 4.198,159.01 0.525,55.949 0.596,111.92 0.625,167.88 l 0,59.263 c -0.02,54.557 -31.21,54.496 -31.192,-0.06 0,-19.701 0.01,-39.4 0,-59.1 -0.03,-55.298 -0.1,-110.6 -0.614,-165.88 -0.542,-49.541 -0.954,-99.276 -3.785,-148.42 -3.626,-53.815 27.142,-66.5 30.768,-12.684 z"
             inkscape:connector-curvature="0"
             style="fill:#382e2e;stroke-width:0;filter:url(#filter4322-6)"
             id="path4128" />
          <path
             d="m -27415,11832 c 7.736,42.049 10.133,87.871 13.586,132.78 2.114,27.659 1.111,13.984 3.014,41.022 3.777,53.751 -26.954,66.966 -30.732,13.215 -1.818,-25.907 -0.846,-12.616 -2.929,-39.866 -3.012,-39.413 -4.9,-79.776 -11.609,-116.76 -8.689,-50.146 19.981,-80.54 28.67,-30.393 z"
             inkscape:connector-curvature="0"
             style="fill:#382e2e;stroke-width:0;filter:url(#filter4318-3)"
             id="path4178" />
          <path
             d="m -27342,11763 c 9.331,45.518 17.095,92.923 25.15,139.9 9.859,49.999 16.957,102.82 22.07,156.89 2.211,29.115 1.445,14.608 2.34,43.507 1.398,54.448 -29.731,59.341 -31.129,4.893 -0.305,-18.554 0.1,-8.205 -1.594,-30.941 -4.639,-49.792 -11.312,-98.26 -20.403,-144.22 -7.577,-44.192 -14.887,-88.762 -23.516,-131.75 -10.943,-47.368 16.14,-85.649 27.082,-38.279 z"
             inkscape:connector-curvature="0"
             style="fill:#382e2e;stroke-width:0;filter:url(#filter4314-2)"
             id="path4180" />
          <path
             d="m -27249,11783 0,177.81 0,142.93 c 0,54.557 -31.192,54.557 -31.192,0 l 0,-142.93 0,-177.81 c 0,-54.557 31.192,-54.557 31.192,0 z"
             inkscape:connector-curvature="0"
             style="fill:#382e2e;stroke-width:0;filter:url(#filter4310-2)"
             id="path4182" />
          <path
             d="m -27180,11788 c 6.365,73.44 7.298,148.85 8.439,223.64 0.762,60.215 0.981,120.46 1.162,180.7 0.163,54.556 -31.028,55.127 -31.192,0.571 -0.177,-59.462 -0.392,-118.93 -1.14,-178.37 -1.054,-69.471 -1.841,-139.52 -7.529,-207.83 -5.35,-52.929 24.911,-71.642 30.26,-18.713 z"
             inkscape:connector-curvature="0"
             style="fill:#382e2e;stroke-width:0;filter:url(#filter4306-5)"
             id="path4184" />
          <path
             d="m -27056,11772 c 10.276,65.941 14.121,136.01 17.016,205.85 2.657,80.475 3.036,161.26 3.247,241.96 0.01,9.842 0.02,19.685 0.03,29.527 0.06,54.558 -31.135,54.755 -31.192,0.198 0,-9.743 -0.02,-19.486 -0.03,-29.229 -0.203,-78.253 -0.557,-156.59 -3.086,-234.63 -2.673,-65.373 -6.266,-130.83 -15.977,-192.47 -6.06,-52.459 23.932,-73.655 29.992,-21.197 z"
             inkscape:connector-curvature="0"
             style="fill:#382e2e;stroke-width:0;filter:url(#filter4302-8)"
             id="path4186" />
          <path
             d="m -26880,11858 c 0.146,54.799 6.037,108.45 10.422,161.85 5.667,61.039 8.617,123.46 13.848,184.67 3.078,28.618 5.093,57.677 6.361,87.087 -1.086,-6.779 -2.172,-13.557 -3.258,-20.336 15.982,37.599 -5.514,93.507 -21.496,55.909 -2.088,-9.135 -4.175,-18.27 -6.263,-27.405 -1.154,-26.875 -3.047,-53.368 -5.88,-79.512 -5.113,-61.415 -8.311,-123.82 -13.88,-185.05 -4.799,-58.467 -11.072,-117.17 -11.046,-177.21 0,-54.557 31.192,-54.557 31.192,0 z"
             inkscape:connector-curvature="0"
             style="fill:#382e2e;stroke-width:0;filter:url(#filter4298-7)"
             id="path4188" />
          <path
             d="m -26729,11795 0,194.13 c -1.207,70.196 1.603,139.95 6.641,208.96 2.684,33.031 1.377,16.976 3.919,48.169 4.357,53.483 -26.221,68.723 -30.578,15.241 -2.589,-31.784 -1.24,-15.177 -4.046,-49.823 -5.271,-73.503 -8.386,-147.8 -7.128,-222.54 l 0,-194.13 c 0,-54.558 31.192,-54.558 31.192,0 z"
             inkscape:connector-curvature="0"
             style="fill:#382e2e;stroke-width:0;filter:url(#filter4294-0)"
             id="path4190" />
          <path
             d="m -26557,11798 c 0.414,78.599 2.161,157.24 5.77,235.35 4.919,72.713 8.852,145.81 14.364,218.27 4.077,53.618 -26.577,67.88 -30.654,14.263 -5.647,-74.294 -9.716,-149.24 -14.702,-223.82 -3.702,-81.011 -5.577,-162.55 -5.97,-244.06 0,-54.557 31.192,-54.557 31.192,0 z"
             inkscape:connector-curvature="0"
             style="fill:#382e2e;stroke-width:0;filter:url(#filter4290-0)"
             id="path4192" />
          <path
             d="m -26329,11871 c 0.03,65.708 -0.752,131.24 1.799,196.69 3.538,53.573 7.897,106.78 12.025,160.09 4.15,53.583 -26.485,68.099 -30.635,14.516 -4.317,-55.746 -8.918,-111.38 -12.449,-167.47 -0.644,-17.763 -1.572,-35.477 -1.932,-53.29 -1.012,-50.05 0.682,-100.44 0,-150.53 0,-54.557 31.192,-54.557 31.192,0 z"
             inkscape:connector-curvature="0"
             style="fill:#382e2e;stroke-width:0;filter:url(#filter4286-9)"
             id="path4194" />
          <path
             d="m -26089,11927 c 0.693,74.514 -0.922,148.87 -2.372,223.26 -0.12,64.87 -3.705,130.15 -2.057,195.01 1.228,54.473 -29.916,58.768 -31.144,4.295 -1.381,-67.616 1.547,-135.42 2.045,-203.02 1.426,-73.153 3.035,-146.26 2.336,-219.54 0,-54.557 31.192,-54.557 31.192,0 z"
             inkscape:connector-curvature="0"
             style="fill:#382e2e;stroke-width:0;filter:url(#filter4282-8)"
             id="path4196" />
          <path
             d="m -25975,11865 c 2.972,47.46 3.635,95.49 4.197,143.41 -0.247,60.792 3.292,121.15 9.179,180.04 1.033,7.348 1.931,14.819 3.098,22.043 1.719,10.644 4.52,24.434 7.13,34.088 1.063,3.936 2.213,7.778 3.56,11.142 0.421,1.05 1.733,3.285 1.634,1.827 -0.147,-2.181 -1.224,-3.223 -1.836,-4.835 21.38,13.402 13.718,88.194 -7.662,74.792 -3.387,-3.351 -7.033,-5.407 -10.16,-10.052 -14.254,-21.177 -20.856,-74.729 -26.059,-110.64 -6.313,-64.221 -10.306,-129.92 -10.063,-196.18 -0.516,-44.421 -1.082,-88.945 -3.786,-132.96 -3.626,-53.816 27.142,-66.5 30.768,-12.685 z"
             inkscape:connector-curvature="0"
             style="fill:#382e2e;stroke-width:0;filter:url(#filter4278-0)"
             id="path4198" />
          <path
             d="m -25788,11800 c 3.129,52.627 3.614,105.92 4.198,159.01 0.525,55.949 0.596,111.92 0.625,167.88 l 0,59.263 c -0.02,54.557 -31.21,54.496 -31.192,-0.06 0,-19.701 0.01,-39.4 0,-59.1 -0.03,-55.298 -0.1,-110.6 -0.614,-165.88 -0.542,-49.541 -0.954,-99.276 -3.785,-148.42 -3.626,-53.815 27.142,-66.5 30.768,-12.684 z"
             inkscape:connector-curvature="0"
             style="fill:#382e2e;stroke-width:0;filter:url(#filter4274-5)"
             id="path4200" />
          <path
             d="m -23757,11832 c 7.736,42.049 10.133,87.871 13.586,132.78 2.114,27.659 1.111,13.984 3.014,41.022 3.777,53.751 -26.954,66.966 -30.732,13.215 -1.818,-25.907 -0.846,-12.616 -2.929,-39.866 -3.012,-39.413 -4.9,-79.776 -11.609,-116.76 -8.689,-50.146 19.981,-80.54 28.67,-30.393 z"
             inkscape:connector-curvature="0"
             style="fill:#382e2e;stroke-width:0;filter:url(#filter4270-7)"
             id="path4202" />
          <path
             d="m -23685,11763 c 9.331,45.518 17.095,92.923 25.15,139.9 9.859,49.999 16.957,102.82 22.07,156.89 2.211,29.115 1.445,14.608 2.34,43.507 1.398,54.448 -29.731,59.341 -31.129,4.893 -0.305,-18.554 0.1,-8.205 -1.594,-30.941 -4.639,-49.792 -11.312,-98.26 -20.403,-144.22 -7.577,-44.192 -14.887,-88.762 -23.516,-131.75 -10.943,-47.368 16.14,-85.649 27.082,-38.279 z"
             inkscape:connector-curvature="0"
             style="fill:#382e2e;stroke-width:0;filter:url(#filter4266-7)"
             id="path4204" />
          <path
             d="m -23592,11783 0,177.81 0,142.93 c 0,54.557 -31.192,54.557 -31.192,0 l 0,-142.93 0,-177.81 c 0,-54.557 31.192,-54.557 31.192,0 z"
             inkscape:connector-curvature="0"
             style="fill:#382e2e;stroke-width:0;filter:url(#filter4262-7)"
             id="path4206" />
          <path
             d="m -23523,11788 c 6.365,73.44 7.298,148.85 8.439,223.64 0.762,60.215 0.981,120.46 1.162,180.7 0.163,54.556 -31.028,55.127 -31.192,0.571 -0.177,-59.462 -0.392,-118.93 -1.14,-178.37 -1.054,-69.471 -1.841,-139.52 -7.529,-207.83 -5.35,-52.929 24.911,-71.642 30.26,-18.713 z"
             inkscape:connector-curvature="0"
             style="fill:#382e2e;stroke-width:0;filter:url(#filter4258-1)"
             id="path4208" />
          <path
             d="m -23399,11772 c 10.276,65.941 14.121,136.01 17.016,205.85 2.657,80.475 3.036,161.26 3.247,241.96 0.01,9.842 0.02,19.685 0.03,29.527 0.06,54.558 -31.135,54.755 -31.192,0.198 0,-9.743 -0.02,-19.486 -0.03,-29.229 -0.203,-78.253 -0.557,-156.59 -3.086,-234.63 -2.673,-65.373 -6.266,-130.83 -15.977,-192.47 -6.06,-52.459 23.932,-73.655 29.992,-21.197 z"
             inkscape:connector-curvature="0"
             style="fill:#382e2e;stroke-width:0;filter:url(#filter4254-0)"
             id="path4210" />
          <path
             d="m -23223,11858 c 0.146,54.799 6.037,108.45 10.422,161.85 5.667,61.039 8.617,123.46 13.848,184.67 3.078,28.618 5.093,57.677 6.361,87.087 -1.086,-6.779 -2.172,-13.557 -3.258,-20.336 15.982,37.599 -5.514,93.507 -21.496,55.909 -2.088,-9.135 -4.175,-18.27 -6.263,-27.405 -1.154,-26.875 -3.047,-53.368 -5.88,-79.512 -5.113,-61.415 -8.311,-123.82 -13.88,-185.05 -4.799,-58.467 -11.072,-117.17 -11.046,-177.21 0,-54.557 31.192,-54.557 31.192,0 z"
             inkscape:connector-curvature="0"
             style="fill:#382e2e;stroke-width:0;filter:url(#filter4250-5)"
             id="path4212" />
          <path
             d="m -23072,11795 0,194.13 c -1.207,70.196 1.603,139.95 6.641,208.96 2.684,33.031 1.377,16.976 3.919,48.169 4.357,53.483 -26.221,68.723 -30.578,15.241 -2.589,-31.784 -1.24,-15.177 -4.046,-49.823 -5.271,-73.503 -8.386,-147.8 -7.128,-222.54 l 0,-194.13 c 0,-54.558 31.192,-54.558 31.192,0 z"
             inkscape:connector-curvature="0"
             style="fill:#382e2e;stroke-width:0;filter:url(#filter4246-9)"
             id="path4214" />
          <path
             d="m -22900,11798 c 0.414,78.599 2.161,157.24 5.77,235.35 4.919,72.713 8.852,145.81 14.364,218.27 4.077,53.618 -26.577,67.88 -30.654,14.263 -5.647,-74.294 -9.716,-149.24 -14.702,-223.82 -3.702,-81.011 -5.577,-162.55 -5.97,-244.06 0,-54.557 31.192,-54.557 31.192,0 z"
             inkscape:connector-curvature="0"
             style="fill:#382e2e;stroke-width:0;filter:url(#filter4242-0)"
             id="path4216" />
          <path
             d="m -22671,11871 c 0.03,65.708 -0.752,131.24 1.799,196.69 3.538,53.573 7.897,106.78 12.025,160.09 4.15,53.583 -26.485,68.099 -30.635,14.516 -4.317,-55.746 -8.918,-111.38 -12.449,-167.47 -0.644,-17.763 -1.572,-35.477 -1.932,-53.29 -1.012,-50.05 0.682,-100.44 0,-150.53 0,-54.557 31.192,-54.557 31.192,0 z"
             inkscape:connector-curvature="0"
             style="fill:#382e2e;stroke-width:0;filter:url(#filter4238-7)"
             id="path4218" />
          <path
             d="m -22432,11927 c 0.693,74.514 -0.922,148.87 -2.372,223.26 -0.12,64.87 -3.705,130.15 -2.057,195.01 1.228,54.473 -29.916,58.768 -31.144,4.295 -1.381,-67.616 1.547,-135.42 2.045,-203.02 1.426,-73.153 3.035,-146.26 2.336,-219.54 0,-54.557 31.192,-54.557 31.192,0 z"
             inkscape:connector-curvature="0"
             style="fill:#382e2e;stroke-width:0;filter:url(#filter4234-5)"
             id="path4220" />
          <path
             d="m -22318,11865 c 2.972,47.46 3.635,95.49 4.197,143.41 -0.247,60.792 3.292,121.15 9.179,180.04 1.033,7.348 1.931,14.819 3.098,22.043 1.719,10.644 4.52,24.434 7.13,34.088 1.063,3.936 2.213,7.778 3.56,11.142 0.421,1.05 1.733,3.285 1.634,1.827 -0.147,-2.181 -1.224,-3.223 -1.836,-4.835 21.38,13.402 13.718,88.194 -7.662,74.792 -3.387,-3.351 -7.033,-5.407 -10.16,-10.052 -14.254,-21.177 -20.856,-74.729 -26.059,-110.64 -6.313,-64.221 -10.306,-129.92 -10.063,-196.18 -0.516,-44.421 -1.082,-88.945 -3.786,-132.96 -3.626,-53.816 27.142,-66.5 30.768,-12.685 z"
             inkscape:connector-curvature="0"
             style="fill:#382e2e;stroke-width:0;filter:url(#filter4230-2)"
             id="path4222" />
          <path
             d="m -22130,11800 c 3.129,52.627 3.614,105.92 4.198,159.01 0.525,55.949 0.596,111.92 0.625,167.88 l 0,59.263 c -0.02,54.557 -31.21,54.496 -31.192,-0.06 0,-19.701 0.01,-39.4 0,-59.1 -0.03,-55.298 -0.1,-110.6 -0.614,-165.88 -0.542,-49.541 -0.954,-99.276 -3.785,-148.42 -3.626,-53.815 27.142,-66.5 30.768,-12.684 z"
             inkscape:connector-curvature="0"
             style="fill:#382e2e;stroke-width:0;filter:url(#filter4226-4)"
             id="path4224" />
          <path
             inkscape:connector-curvature="0"
             style="fill:none;stroke:#820925;stroke-width:70.80000305;filter:url(#filter4402-6)"
             sodipodi:nodetypes="ccc"
             d="m -32640,11178 c 2604.9,875.2 5093.5,1743.7 7817.1,1668.6 3042,-13.893 5423.6,-663.84 7982.4,-1462.9"
             id="path4396" />
        </g>
        <path
           d="m -273.43,288 c 10.362,5.3973 20.421,11.349 30.731,16.842 13.477,6.5504 26.776,13.456 40.277,19.966 20.229,8.8971 40.316,18.184 60.785,26.527 12.011,4.9042 23.923,10.082 35.561,15.82 7.6315,3.5437 14.757,8.0344 21.777,12.642 7.8438,4.7673 16.073,8.9176 24.302,12.983 7.4564,3.7067 15.413,6.1145 23.227,8.9053 8.6998,3.8031 17.705,6.7013 26.71,9.6684 12.232,3.6992 24.698,6.5926 37.019,9.9866 9.7523,2.6867 19.636,4.8239 29.415,7.3764 7.7716,2.2584 15.73,3.6456 23.774,4.4253 9.771,0.20544 19.342,2.2531 29.019,3.399 12.476,1.2844 25.015,1.7814 37.548,2.0562 11.549,0.17434 23.101,0.13912 34.651,0.13008 9.6814,-0.0103 19.363,-0.0215 29.044,-0.0268 7.7318,-0.003 15.464,-0.004 23.195,-0.004 8.6278,10e-6 17.256,1.2e-4 25.883,1.8e-4 12.073,6e-5 24.146,6e-5 36.22,7e-5 l 30.722,0 c 5.5885,-1.244 11.462,-0.88949 17.051,-2.0553 6.7671,-1.3226 13.672,-1.69 20.397,-3.2068 10.662,-1.9676 21.346,-3.8576 32.07,-5.4636 5.6621,-0.19002 10.535,-1.8726 15.707,-3.598 5.8768,-2.372 11.942,-4.3076 17.772,-6.8172 11.907,-4.4605 23.602,-9.2498 35.862,-12.681 7.7153,-2.2472 15.216,-5.1784 22.682,-8.1414 5.8804,-2.3367 9.7837,-5.2117 15.351,-8.247 5.5127,-3.1915 11.214,-6.0069 17.064,-8.5228 7.4836,-3.4161 15.591,-5.6019 22.85,-9.5129 5.791,-2.4006 10.388,-6.481 15.005,-10.554 -0.22938,0.12236 -0.83174,0.5838 -0.68814,0.36708 2.5677,-3.8754 6.6407,-7.1718 9.8048,-10.64 5.4128,-6.4352 12.353,-11.075 19.044,-16.008 0.66533,-0.5256 1.3177,-1.068 1.996,-1.5768 2.855,-2.1418 5.5494,-4.194 8.2765,-6.4968 1.6397,-1.3846 1.2227,-1.1038 0.50888,-0.72749 1.25,-1.7178 0.47563,-0.67239 2.354,-3.1132 26.739,-34.704 75.818,3.1105 49.079,37.815 -2.9496,3.8245 -1.3228,1.7503 -4.901,6.2067 -6.4256,6.8708 -13.622,12.795 -21.262,18.282 -3.5716,2.5217 -5.9493,3.6668 -9.324,7.377 -4.6075,5.0503 -9.3198,9.8848 -13.896,14.974 -8.7604,7.7294 -18.028,14.851 -28.733,19.732 -8.5599,4.0551 -17.393,7.4474 -26.137,11.006 -4.5347,1.7584 -8.6662,4.3671 -12.96,6.6212 0.91456,-1.2139 0.22872,-0.22549 -2.4519,1.4328 -5.8095,3.594 -11.858,6.5947 -18.177,9.1941 -9.5928,3.7895 -19.245,7.497 -29.177,10.306 -9.8528,2.5634 -19.022,6.9227 -28.637,10.222 -7.21,2.8958 -14.505,5.5436 -21.77,8.3002 -8.5236,2.816 -17.118,5.3508 -26.124,6.0836 -9.5041,1.4026 -18.962,3.1167 -28.418,4.8078 -7.8444,1.597 -15.759,2.5189 -23.657,3.8028 -8.8098,1.2517 -17.694,2.0844 -26.562,2.7897 -10.241,0 -20.481,0 -30.722,-1e-5 -12.073,0 -24.147,0 -36.22,-7e-5 -8.6272,-5e-5 -17.254,-1.7e-4 -25.882,-1.7e-4 -7.7209,1.5e-4 -15.442,3.9e-4 -23.163,0.004 -9.6765,0.005 -19.353,0.0165 -29.029,0.0268 -12.026,0.009 -24.052,0.0455 -36.077,-0.14538 -14.567,-0.32794 -29.14,-0.93309 -43.634,-2.4921 -9.2788,-1.1461 -18.427,-3.0592 -27.796,-3.2629 -11.431,-1.188 -22.767,-3.1128 -33.828,-6.2913 -9.7306,-2.9426 -19.929,-4.401 -29.653,-7.4416 -13.269,-3.6975 -26.735,-6.7091 -39.877,-10.852 -9.5075,-3.1327 -19.04,-6.1877 -28.228,-10.19 -10.063,-3.6248 -20.282,-6.8554 -29.851,-11.724 -10.443,-5.1963 -20.896,-10.468 -30.77,-16.691 -4.959,-3.2551 -9.9219,-6.5499 -15.361,-8.959 -10.235,-5.1591 -20.857,-9.5395 -31.428,-13.951 -21.626,-8.8675 -42.906,-18.59 -64.264,-28.076 -14.271,-6.8919 -28.339,-14.174 -42.574,-21.134 -9.7916,-5.2545 -19.409,-10.825 -29.213,-16.056 -39.185,-19.593 -11.477,-75.009 27.708,-55.416 z"
           transform="matrix(0.35782,0,0,0.33934,249.99,138.76)"
           inkscape:connector-curvature="0"
           style="fill:#a40000;fill-opacity:0.91123998;stroke:#130206;stroke-width:0.1;filter:url(#filter4578)"
           id="path3804" />
        <path
           transform="matrix(0.35722,0,0,0.36232,249.66,142)"
           inkscape:connector-curvature="0"
           sodipodi:nodetypes="ccccccccccc"
           d="m -468.54,74.476 c 148.31,-46.019 263.5,-92.059 416.88,-116.48 115.87,13.715 234.29,77.083 350.44,29.235 87.28,-24.832 184.73,-36.614 269.14,4.38 94.81,26.266 172.76,71.448 269.11,89.91 45.3,51.899 -33.49,-7.335 -55.76,-25.53 C 693.24,33.84 600.24,35.66 514.65,2.911 446.66,-16.747 371.96,-16.016 307.38,14.523 196.47,42.593 80.12,22.136 -27.24,-11.123 c -116.25,-9.534 -222.53,52.339 -337.27,57.56 -44.099,13.39 -60.098,64.865 -104.03,28.04 z"
           style="fill:#ef2929;fill-opacity:0.91123998;stroke:#130206;stroke-width:0.1;filter:url(#filter4586)"
           id="path4584" />
        <path
           d="m -350.32,125.02 c 6.4533,2.2018 12.912,4.4046 19.378,6.5865 5.0821,1.8249 10.086,3.5661 15.311,4.9094 7.0351,1.8131 13.715,4.7257 20.736,6.5687 6.172,1.4971 12.078,3.8868 18.254,5.3542 6.3449,0.89696 12.592,2.2297 18.8,3.8118 7.796,2.2019 15.745,3.6623 23.71,5.1033 7.2592,1.3198 14.598,2.0576 21.963,2.4048 7.6594,1.1471 15.354,1.8705 23.085,2.2903 7.5219,0.33264 15.052,0.39973 22.58,0.4296 7.0714,0.33957 13.794,2.6379 20.722,3.8655 7.7262,0.65742 15.296,1.8069 22.876,3.4599 7.3706,1.3471 14.693,2.5794 21.838,4.8789 5.0295,1.862 10.358,2.5368 15.669,2.9783 5.7852,-0.0147 11.438,1.1879 17.133,2.026 5.3259,0.33671 10.493,1.6856 15.74,2.5542 5.8456,1.5219 11.758,2.4939 17.768,3.0188 7.1285,1.1498 14.252,2.2308 21.243,4.0522 6.3104,1.8677 12.736,3.2158 19.295,3.7397 12.056,1.5944 23.742,4.9476 35.549,7.73 6.8596,1.6587 13.844,2.5867 20.885,2.913 8.6864,0.42301 17.315,1.517 26.005,2.0116 8.6593,0.46172 17.33,0.59094 26,0.64307 9.1937,0.61238 18.353,1.5975 27.552,2.1473 8.0041,0.44836 16.024,0.42109 24.038,0.44578 8.7728,0.0142 17.546,0.001 26.318,-0.004 8.5701,-0.004 17.14,-0.007 25.71,-0.008 7.8839,-6.3e-4 15.768,-4.5e-4 23.652,-4.2e-4 9.86,4e-5 19.72,7e-5 29.58,9e-5 9.557,1e-5 19.114,1e-5 28.671,1e-5 l 31.486,0 23.079,0 29.016,0 c 6.5812,-0.53525 13.396,0.78329 19.934,-0.23548 7.3653,-1.326 14.849,-1.7163 22.311,-2.0434 8.6468,0.0846 17.203,-0.48151 25.789,-1.4135 6.8109,-1.5789 13.419,-3.8135 20.299,-5.1518 10.125,-1.376 20.346,-1.1442 30.504,-2.1751 6.6657,-0.31215 13.094,-2.0409 19.644,-3.1296 9.0263,-1.9948 18.278,-2.4131 27.411,-3.6384 5.939,-1.305 11.429,-3.9212 17.222,-5.7143 5.3711,-1.7024 10.573,-3.9637 15.619,-6.465 7.6654,-3.6866 16.168,-4.7751 24.321,-6.9036 5.9177,-1.8037 12.246,-2.7145 17.963,-5.1401 8.2425,-3.3412 17.16,-3.743 25.929,-4.1616 11.768,-0.3573 23.542,-0.3357 35.314,-0.33484 11.571,0.0127 23.142,0.025 34.714,0.0319 6.2013,-0.47169 16.201,0.62063 21.887,-2.1445 4.8342,-1.4121 8.0626,-4.8565 12.049,-7.7587 4.6696,-3.5837 9.3472,-7.0767 14.42,-10.072 4.9628,-2.9891 9.7875,-6.193 14.823,-9.0614 6.7847,-3.6132 14.208,-5.6928 21.411,-8.2783 5.0346,-1.9642 9.9262,-4.2393 14.942,-6.2404 4.9696,-2.3647 10.083,-4.2849 15.267,-6.1176 17.218,-6.0639 25.793,18.286 8.5757,24.35 -4.9098,1.7236 -9.7201,3.5858 -14.438,5.8098 -5.2733,1.9841 -10.328,4.5488 -15.624,6.4963 -5.8231,2.0902 -11.806,3.7902 -17.405,6.4407 -4.9168,2.7673 -9.5836,5.9446 -14.428,8.833 -4.4402,2.6199 -8.4685,5.7736 -12.587,8.8826 -5.917,4.0042 -11.111,9.1067 -18.26,11.006 -9.871,3.2555 -20.296,3.7744 -30.647,3.6708 -11.567,-0.007 -23.134,-0.0192 -34.7,-0.0319 -11.37,-8.9e-4 -22.743,-0.0212 -34.109,0.3068 -6.046,0.2744 -12.282,0.25242 -17.988,2.5157 -6.7498,2.4436 -13.716,4.2393 -20.672,5.9992 -6.4791,1.6495 -13.195,2.5797 -19.406,5.09 -6.3087,3.061 -12.757,5.9081 -19.465,7.9791 -7.1571,2.1056 -13.868,5.6656 -21.37,6.6097 -8.875,1.1418 -17.846,1.623 -26.615,3.5214 -7.072,1.1188 -14.016,3.0303 -21.211,3.3359 -9.4262,0.94091 -18.877,0.97202 -28.302,1.8574 -7.5545,1.3544 -14.672,4.424 -22.3,5.4486 -9.1349,0.99073 -18.255,1.6173 -27.452,1.5398 -6.9237,0.29843 -13.853,0.68265 -20.685,1.9212 -7.5413,0.67666 -15.115,0.28625 -22.681,0.38212 l -29.016,0 -23.079,0 -31.486,0 c -9.5571,0 -19.114,0 -28.671,-1e-5 -9.86,-2e-5 -19.72,-5e-5 -29.58,-9e-5 -7.8828,-3e-5 -15.766,-2.1e-4 -23.648,4.2e-4 -8.5662,10e-4 -17.132,0.003 -25.699,0.008 -8.8043,0.005 -17.609,0.0179 -26.413,0.003 -8.5028,-0.0264 -17.012,-0.007 -25.504,-0.49203 -8.7358,-0.52632 -17.442,-1.3649 -26.161,-2.1014 -9.1106,-0.0555 -18.222,-0.1961 -27.322,-0.68496 -8.6166,-0.49766 -17.175,-1.5569 -25.784,-1.9998 -8.6116,-0.4358 -17.163,-1.5386 -25.556,-3.5724 -10.587,-2.501 -21.061,-5.4916 -31.833,-7.135 -8.0387,-0.7255 -15.958,-2.1913 -23.702,-4.5078 -5.5625,-1.5143 -11.264,-2.1953 -16.919,-3.2914 -6.662,-0.60511 -13.278,-1.5335 -19.75,-3.2735 -5.0879,-0.86464 -10.082,-2.1593 -15.249,-2.4766 -5.1812,-0.77329 -10.287,-1.9091 -15.557,-1.8416 -7.2975,-0.64279 -14.595,-1.6802 -21.522,-4.1752 -6.2688,-2.1366 -12.824,-2.7742 -19.276,-4.1803 -7.2775,-1.5878 -14.531,-2.5462 -21.947,-3.2752 -5.4633,-0.99526 -10.797,-2.4698 -16.252,-3.4573 -7.9657,-0.032 -15.933,-0.10666 -23.892,-0.46822 -7.664,-0.42496 -15.336,-0.97559 -22.909,-2.2812 -8.4925,-0.41489 -16.957,-1.2628 -25.329,-2.7891 -8.5586,-1.5547 -17.1,-3.1585 -25.486,-5.4901 -6.1266,-1.564 -12.3,-2.7477 -18.543,-3.7476 -6.355,-1.579 -12.487,-3.8476 -18.822,-5.4998 -6.9226,-1.8857 -13.58,-4.5332 -20.478,-6.501 -5.8435,-1.5053 -11.457,-3.455 -17.136,-5.4515 -6.4347,-2.1743 -12.848,-4.4066 -19.283,-6.5545 -17.318,-5.7725 -9.154,-30.263 8.1636,-24.491 z"
           transform="matrix(0.39579,0,0,0.23378,215.84,154.43)"
           inkscape:connector-curvature="0"
           style="opacity:0.84877996;fill:#000000;fill-opacity:0.91123998;stroke:#130206;stroke-width:0.1;filter:url(#filter4630)"
           id="path4624" />
        <path
           inkscape:original-d="m 198.2617,290.25651 c 1.12088,-3.5277 1.20258,-7.53705 2.77123,-10.51228 0.92373,-1.75204 3.69496,-2.62807 4.61868,-4.3801 3.30889,-6.27596 6.09745,-8.1474 12.93232,-11.38831 2.04895,-0.97155 2.6404,-5.13206 3.69495,-6.13216 0.56928,-0.53987 3.23131,-1.74868 3.69495,-2.62807 1.07338,-2.03585 0.79021,-5.00286 1.84748,-7.00819 2.19293,-4.1593 4.04613,-8.55028 6.46618,-13.14033 0.0563,-0.10703 5.93825,-4.75552 6.46616,-5.25613 0.62773,-0.59533 0.73952,-3.32941 2.7712,-5.25614"
           inkscape:connector-curvature="0"
           d="m 193.3,290.89 9.9191,-1.2692 c -0.53593,-2.319 -0.0799,-5.1157 1.2794,-7.2809 0.76393,-1.2923 2.0425,-2.5224 3.5139,-3.8125 2.0272,-1.7343 4.4405,-3.4282 6.8237,-5.4791 l 1e-5,-10e-6 c 2.4126,-2.0309 4.7121,-4.5549 6.2872,-7.6627 0.63069,-1.3013 1.0255,-2.47 1.4349,-3.4307 0.43427,-0.93878 0.81332,-1.7492 1.3254,-2.2306 0.60077,-0.66141 2.1786,-1.3721 3.7041,-3.0142 1.1482,-1.4318 1.6777,-3.0141 1.8247,-4.4748 0.17257,-1.439 0.12322,-2.7202 0.15716,-3.8593 l 0,-1e-5 c 0.15819,-4.5902 1.9146,-9.3086 5.2847,-12.665 1.8752,-1.8769 4.3614,-3.4282 6.1642,-5.6599 1.2936,-1.6107 2.1538,-3.5235 2.5042,-5.4974 -0.58365,1.918 -1.6483,3.656 -3.0382,5.0148 -1.9275,1.896 -4.4711,3.0489 -6.7682,4.8524 -4.1238,3.2538 -6.8412,8.2598 -7.6476,13.616 -0.20406,1.3148 -0.29175,2.5117 -0.55468,3.4992 -0.28839,0.96553 -0.63229,1.8057 -1.1584,2.183 -0.53353,0.58267 -1.9813,0.93482 -3.6858,2.2419 -1.3161,1.0797 -2.2494,2.348 -2.9065,3.5512 -0.682,1.1814 -1.1869,2.2513 -1.723,3.0519 -1.2384,1.9601 -3.2166,3.5463 -5.3929,5.0567 -2.2059,1.4906 -4.7433,2.8441 -7.3608,4.578 0,0 0,10e-6 -1e-5,10e-6 -1.9406,1.2578 -3.9348,2.8314 -5.7234,4.9477 -3.0922,3.7791 -4.6697,8.6965 -4.2631,13.744 z"
           style="fill:#a40000;fill-rule:evenodd"
           id="path4634" />
        <path
           inkscape:original-d="m 179.78696,267.47991 c 8.18059,-9.14608 20.16816,-19.19945 31.40709,-24.52863 4.201,-1.99202 7.63287,-9.86669 11.08483,-13.14034 2.43001,-2.30449 0.13295,-11.3883 4.61869,-11.3883"
           inkscape:connector-curvature="0"
           d="m 177.14,263.24 5.2994,8.4803 c 11.074,-8.0495 21.216,-17.205 30.235,-27.237 l 1e-5,0 c 3.9059,-4.3243 7.6912,-8.9685 10.368,-14.215 l 0,-1e-5 c 1.9115,-3.7579 3.209,-7.7731 3.8577,-11.845 -1.2249,3.9374 -3.0563,7.6372 -5.3796,10.931 -3.2408,4.6081 -7.4357,8.4087 -11.802,12.066 l 0,1e-5 c -10.134,8.4483 -21.083,15.765 -32.579,21.82 z"
           style="fill:#a40000;fill-rule:evenodd"
           id="path4640" />
        <path
           inkscape:original-d="m 156.69353,255.21559 c -0.67051,-13.44649 15.50165,-13.82491 23.09343,-21.02455 1.69067,-1.60334 6.41739,-1.70581 8.31365,-3.50408 1.92835,-1.82877 1.93412,-3.66845 2.7712,-5.25613 0.28937,-0.54883 3.16081,-2.12153 3.69496,-2.62808 1.46056,-1.38512 1.31066,-3.87102 2.7712,-5.25613"
           inkscape:connector-curvature="0"
           d="m 151.92,253.71 9.539,3.0014 c 0.92009,-4.4854 3.1232,-8.8879 6.3652,-12.466 3.2388,-3.5811 7.5741,-6.3874 12.421,-7.9007 1.373,-0.42355 2.9744,-0.78909 4.6072,-1.4484 1.6595,-0.63847 3.2829,-1.7473 4.3797,-3.3637 l 0,-1e-5 c 0.66796,-1.071 0.99551,-2.1305 1.2739,-3.0742 l 0,-1e-5 c 0.30264,-0.92936 0.55661,-1.7855 1.04,-2.4264 0.68673,-1.0248 2.1379,-1.7196 3.3377,-2.8232 1.6205,-1.4904 2.4948,-3.6212 2.4497,-5.6674 -0.30221,2.0243 -1.4998,3.8234 -3.0927,4.8449 -1.1893,0.76401 -2.7186,1.1964 -4.0522,2.433 -0.84188,0.84257 -1.3972,1.8501 -1.8415,2.7643 -0.46857,0.89994 -0.86244,1.7262 -1.387,2.2473 -0.75001,0.84939 -1.9656,1.2992 -3.2344,1.6177 -1.2961,0.29776 -2.766,0.35615 -4.406,0.57832 l -1e-5,0 c -5.8182,0.77247 -11.522,3.1266 -16.349,6.8886 -4.8238,3.7655 -8.6979,8.8747 -11.052,14.794 z"
           style="fill:#a40000;fill-rule:evenodd"
           id="path4646" />
        <path
           inkscape:original-d="m 425.75063,285.00036 c -1.12088,-3.52768 -1.20258,-7.53703 -2.77121,-10.51227 -0.92374,-1.75204 -3.69495,-2.62808 -4.6187,-4.38011 -3.30888,-6.27594 -6.09743,-8.14738 -12.93232,-11.38829 -2.04894,-0.97156 -2.64038,-5.13206 -3.69494,-6.13216 -0.56928,-0.53988 -3.23132,-1.7487 -3.69496,-2.62807 -1.07335,-2.03585 -0.7902,-5.00288 -1.84748,-7.00818 -2.19292,-4.15933 -4.04613,-8.55029 -6.46617,-13.14034 -0.0563,-0.10703 -5.93825,-4.75552 -6.46616,-5.25614 -0.62773,-0.59532 -0.73953,-3.32941 -2.77119,-5.25615"
           inkscape:connector-curvature="0"
           d="m 420.79,284.37 9.9191,1.2692 c 0.4066,-5.0472 -1.1709,-9.9646 -4.2631,-13.744 -1.7886,-2.1163 -3.7828,-3.69 -5.7234,-4.9478 -2.6175,-1.7339 -5.155,-3.0874 -7.3608,-4.578 l -1e-5,0 c -2.1763,-1.5105 -4.1545,-3.0967 -5.3929,-5.0567 -0.53618,-0.80061 -1.041,-1.8706 -1.723,-3.0519 -0.6571,-1.2032 -1.5904,-2.4715 -2.9065,-3.5512 -1.7045,-1.3071 -3.1523,-1.6592 -3.6858,-2.2419 -0.52612,-0.37734 -0.87002,-1.2175 -1.1584,-2.183 -0.26293,-0.98758 -0.35062,-2.1845 -0.55468,-3.4992 -0.80646,-5.3558 -3.5238,-10.362 -7.6476,-13.616 -2.2971,-1.8035 -4.8407,-2.9563 -6.7682,-4.8524 -1.3899,-1.3588 -2.4546,-3.0969 -3.0382,-5.0148 0.35035,1.9739 1.2106,3.8868 2.5042,5.4974 1.8028,2.2317 4.2889,3.783 6.1642,5.6599 3.3701,3.3564 5.1265,8.0748 5.2847,12.665 l 0,1e-5 c 0.0339,1.1391 -0.0154,2.4203 0.15716,3.8593 0.14703,1.4607 0.67648,3.043 1.8247,4.4748 1.5256,1.6421 3.1033,2.3528 3.7041,3.0142 0.51207,0.48138 0.89113,1.2918 1.3254,2.2306 0.40941,0.9607 0.80425,2.1294 1.4349,3.4307 l 0,1e-5 c 1.575,3.1078 3.8746,5.6318 6.2872,7.6627 l 1e-5,0 c 2.3832,2.0509 4.7965,3.7448 6.8237,5.4791 l 0,10e-6 c 1.4714,1.2901 2.75,2.5202 3.514,3.8125 1.3593,2.1652 1.8153,4.9618 1.2793,7.2809 z"
           style="fill:#a40000;fill-rule:evenodd"
           id="path4842" />
        <path
           inkscape:original-d="m 444.22539,262.22378 c -8.18059,-9.14609 -20.16817,-19.19947 -31.40708,-24.52863 -4.20103,-1.99203 -7.63289,-9.86669 -11.08485,-13.14035 -2.43002,-2.3045 -0.13295,-11.3883 -4.6187,-11.3883"
           inkscape:connector-curvature="0"
           d="m 441.58,266.46 5.2994,-8.4803 c -11.496,-6.0551 -22.445,-13.371 -32.579,-21.82 -4.3658,-3.6573 -8.5608,-7.4578 -11.802,-12.066 l -1e-5,0 c -2.3234,-3.2941 -4.1548,-6.9939 -5.3797,-10.931 0.6487,4.0722 1.9463,8.0874 3.8577,11.845 l 0,1e-5 c 2.677,5.2462 6.4623,9.8904 10.368,14.215 9.0187,10.033 19.161,19.188 30.235,27.237 z"
           style="fill:#a40000;fill-rule:evenodd"
           id="path4844" />
        <path
           inkscape:original-d="m 467.31881,249.95946 c 0.67051,-13.44649 -15.50164,-13.82491 -23.09342,-21.02456 -1.69069,-1.60335 -6.41741,-1.7058 -8.31365,-3.50407 -1.92837,-1.82877 -1.93414,-3.66845 -2.77121,-5.25615 -0.28937,-0.54883 -3.16082,-2.12151 -3.69495,-2.62806 -1.46057,-1.38512 -1.31065,-3.87102 -2.77121,-5.25614"
           inkscape:connector-curvature="0"
           d="m 462.55,251.46 9.539,-3.0014 c -2.3537,-5.9195 -6.2278,-11.029 -11.052,-14.794 -4.827,-3.7621 -10.53,-6.1162 -16.349,-6.8886 l -10e-6,0 c -1.64,-0.22217 -3.1098,-0.28055 -4.406,-0.57832 -1.2688,-0.31844 -2.4844,-0.76826 -3.2344,-1.6176 -0.52454,-0.52115 -0.91841,-1.3474 -1.387,-2.2473 -0.44434,-0.91427 -0.99962,-1.9218 -1.8415,-2.7643 l 0,-1e-5 c -1.3336,-1.2366 -2.8629,-1.669 -4.0522,-2.433 -1.5928,-1.0215 -2.7905,-2.8206 -3.0927,-4.8449 -0.0451,2.0462 0.82922,4.177 2.4497,5.6674 1.1999,1.1036 2.651,1.7983 3.3377,2.8232 0.48339,0.64086 0.73736,1.497 1.04,2.4264 0.27841,0.94373 0.60596,2.0032 1.2739,3.0743 l 0,1e-5 c 1.0968,1.6164 2.7202,2.7253 4.3797,3.3637 1.6329,0.65935 3.2342,1.0249 4.6072,1.4484 4.8473,1.5133 9.1826,4.3196 12.421,7.9007 3.242,3.5777 5.4451,7.9802 6.3652,12.466 z"
           style="fill:#a40000;fill-rule:evenodd"
           id="path4846" />
        <path
           inkscape:original-d="m 211.68952,376.60203 c 1.24254,-4.59393 4.09747,-9.09101 4.39113,-13.34408 0.17294,-2.50453 -2.53522,-5.1594 -2.36229,-7.66393 0.61945,-8.97142 -1.37635,-12.74099 -7.25981,-20.48726 -1.76372,-2.32217 0.58572,-7.29651 0.0463,-9.04638 -0.29116,-0.94462 -2.62201,-3.90233 -2.53522,-5.15941 0.20094,-2.91022 2.72949,-6.02947 2.92743,-8.89606 0.41052,-5.94571 1.40286,-11.94204 1.85591,-18.50348 0.0105,-0.15302 -3.68261,-8.88181 -3.95261,-9.75776 -0.32106,-1.04162 1.55793,-4.14238 0.5188,-7.51359"
           transform="matrix(0.71564,0,0,0.67868,178.86,53.615)"
           inkscape:connector-curvature="0"
           d="m 208.03,373.19 7.3186,6.8146 c 4.1464,-4.8202 5.9271,-11.16 5.0229,-17.242 -0.55014,-3.334 -1.7266,-6.2508 -3.07,-8.8121 l -1e-5,0 c -1.7968,-3.5038 -3.7936,-6.5524 -5.3088,-9.595 -1.4697,-3.0451 -2.6421,-6.1172 -2.6303,-9.1273 -0.0278,-1.2516 0.17896,-2.7376 0.2521,-4.4373 0.11402,-1.7076 -0.0428,-3.6498 -0.78586,-5.5936 -0.51987,-1.2089 -1.141,-2.1302 -1.6599,-2.8863 -0.48465,-0.77086 -0.91036,-1.3841 -1.0527,-1.9247 -0.35668,-0.86746 -0.1168,-2.1098 0.29845,-3.3852 0.45774,-1.2838 1.2717,-2.6229 2.0221,-4.159 3.0332,-6.1352 3.6066,-13.441 1.1222,-19.629 -1.3763,-3.4013 -3.5328,-6.2357 -4.4079,-9.5491 -0.63997,-2.3933 -0.59357,-5.0079 0.16812,-7.4378 -0.98631,2.3477 -1.3043,5.0102 -0.86948,7.5894 0.61051,3.5597 2.5332,6.7369 3.4973,9.9664 1.763,5.8448 0.4974,12.315 -2.5896,17.377 l 0,1e-5 c -0.78605,1.2748 -1.7673,2.6147 -2.5793,4.2719 -0.85426,1.6649 -1.339,3.7276 -0.95501,5.976 0.30226,1.3298 0.82327,2.4249 1.3239,3.3048 0.4664,0.89466 0.88743,1.6086 1.0339,2.2031 0.31162,0.91056 0.21203,2.0965 0.0688,3.421 -0.18414,1.3326 -0.53565,2.8522 -0.69514,4.6408 -0.30542,4.3112 0.69329,8.4649 2.1684,12.13 l 0,1e-5 c 1.4298,3.6684 3.1604,6.9612 4.4122,10.122 l 0,1e-5 c 0.88997,2.3211 1.5943,4.5156 1.6545,6.5158 0.1935,3.5109 -1.3258,7.1994 -3.7594,9.4458 z"
           style="fill:#a40000;fill-rule:evenodd;filter:url(#filter4916)"
           id="path4860" />
        <path
           inkscape:original-d="m 250.82663,362.55737 c -3.16145,-15.11403 -10.26147,-33.54669 -19.93593,-46.28424 -3.61624,-4.76121 -1.96778,-15.58073 -3.73333,-21.30868 -1.24286,-4.03217 8.22914,-12.71349 2.80083,-15.43791"
           transform="matrix(0.71564,0,0,0.67868,178.86,53.615)"
           inkscape:connector-curvature="0"
           d="m 246.5,365.07 8.6502,-5.0173 c -9.0761,-13.741 -16.57,-28.669 -22.219,-44.38 -2.4112,-6.7555 -4.5085,-13.605 -4.8794,-20.7 -0.27632,-5.1523 0.35976,-10.408 1.9048,-15.442 -2.1052,4.826 -3.3747,10.073 -3.6969,15.434 -0.43408,7.3794 0.88942,14.793 2.5872,21.917 l 0,10e-6 c 3.9106,16.579 9.8328,32.799 17.653,48.188 z"
           style="fill:#a40000;fill-rule:evenodd;filter:url(#filter4912)"
           id="path4862" />
        <path
           inkscape:original-d="m 287.8083,362.97886 c 10.71779,-14.50856 -8.57393,-24.75062 -12.45685,-37.34789 -0.86472,-2.8054 -6.50921,-5.78985 -7.47907,-8.93634 -0.98629,-3.19981 0.36208,-5.24403 0.51879,-7.5136 0.0542,-0.78454 -2.26203,-4.27309 -2.53522,-5.1594 -0.74704,-2.42354 1.26582,-5.09006 0.5188,-7.5136"
           transform="matrix(0.71564,0,0,0.67868,178.86,53.615)"
           inkscape:connector-curvature="0"
           d="m 282.98,361.68 9.6548,2.6048 c 1.6191,-7.8018 0.85974,-15.86 -2.0055,-22.995 -2.872,-7.1326 -7.8033,-13.21 -13.915,-17.401 -1.7545,-1.2096 -3.4436,-2.1382 -4.7773,-3.2925 -1.2893,-1.1593 -2.4234,-2.5154 -2.6603,-4.0404 -0.20877,-0.95835 -0.0378,-2.1281 0.0952,-3.4058 0.16755,-1.2773 0.26983,-2.718 -0.0943,-4.1524 -0.30692,-1.0876 -0.84673,-1.9992 -1.4087,-2.8136 -0.55304,-0.81798 -1.123,-1.5617 -1.5349,-2.3654 -1.122,-2.16 -1.1598,-4.9888 0.0395,-7.3075 -1.4969,2.1386 -1.934,5.0942 -0.99813,7.7197 0.34807,0.96355 0.83977,1.8372 1.2619,2.6775 0.41314,0.84381 0.77638,1.6674 0.86493,2.4623 l 0,10e-6 c 0.15476,1.0358 -0.12798,2.1579 -0.41256,3.3638 -0.31908,1.2056 -0.66884,2.5521 -0.6241,4.1051 0.1653,2.4594 1.3627,4.6744 2.9182,6.3337 1.5122,1.6653 3.2006,2.9487 4.6024,4.206 4.8421,4.3708 8.2717,10.138 9.7984,16.193 1.5334,6.0531 1.1974,12.487 -0.80481,18.107 z"
           style="fill:#a40000;fill-rule:evenodd;filter:url(#filter4908)"
           id="path4864" />
        <path
           inkscape:original-d="m 185.47865,376.60203 c -1.24254,-4.59393 -4.09747,-9.09101 -4.39113,-13.34408 -0.17294,-2.50453 2.53522,-5.1594 2.36229,-7.66393 -0.61945,-8.97142 1.37635,-12.74099 7.25981,-20.48726 1.76372,-2.32217 -0.58572,-7.29651 -0.0463,-9.04638 0.29116,-0.94462 2.62201,-3.90233 2.53522,-5.15941 -0.20094,-2.91022 -2.72949,-6.02947 -2.92743,-8.89606 -0.41052,-5.94571 -1.40286,-11.94204 -1.85591,-18.50348 -0.0105,-0.15302 3.68261,-8.88181 3.95261,-9.75776 0.32106,-1.04162 -1.55793,-4.14238 -0.5188,-7.51359"
           transform="matrix(0.71564,0,0,0.67868,178.86,53.615)"
           inkscape:connector-curvature="0"
           d="m 181.82,380.01 7.3186,-6.8146 c -2.4336,-2.2464 -3.9529,-5.9349 -3.7594,-9.4458 0.0602,-2.0002 0.76457,-4.1946 1.6545,-6.5158 l 0,-10e-6 c 1.2518,-3.1607 2.9823,-6.4535 4.4122,-10.122 1.4751,-3.6654 2.4738,-7.8191 2.1684,-12.13 -0.15949,-1.7887 -0.511,-3.3083 -0.69514,-4.6408 -0.14325,-1.3245 -0.24284,-2.5104 0.0688,-3.421 0.14645,-0.59445 0.56748,-1.3084 1.0339,-2.2031 0.50067,-0.87987 1.0217,-1.975 1.3239,-3.3048 0.38403,-2.2484 -0.10075,-4.311 -0.95501,-5.976 -0.81206,-1.6572 -1.7933,-2.9971 -2.5793,-4.2719 l 0,-1e-5 c -3.087,-5.0625 -4.3526,-11.533 -2.5896,-17.377 0.96416,-3.2296 2.8868,-6.4068 3.4973,-9.9664 0.43481,-2.5792 0.11683,-5.2417 -0.86948,-7.5894 0.76169,2.4299 0.80809,5.0444 0.16812,7.4378 -0.87504,3.3134 -3.0316,6.1478 -4.4079,9.5491 -2.4844,6.1887 -1.911,13.494 1.1222,19.629 0.75032,1.5361 1.5643,2.8752 2.0221,4.159 0.41525,1.2754 0.65513,2.5178 0.29845,3.3852 -0.14237,0.54053 -0.56808,1.1538 -1.0527,1.9247 -0.51893,0.7561 -1.14,1.6775 -1.6599,2.8863 -0.74307,1.9438 -0.89988,3.8861 -0.78586,5.5936 l 0,10e-6 c 0.0731,1.6997 0.27987,3.1856 0.2521,4.4372 0.0118,3.0102 -1.1606,6.0822 -2.6303,9.1273 -1.5151,3.0426 -3.5119,6.0911 -5.3088,9.595 l -1e-5,0 c -1.3435,2.5613 -2.5199,5.478 -3.07,8.8121 -0.90423,6.0822 0.87653,12.422 5.0229,17.242 z"
           style="fill:#a40000;fill-rule:evenodd;filter:url(#filter4904)"
           id="path4878" />
        <path
           inkscape:original-d="m 146.34154,362.55737 c 3.16145,-15.11403 10.26147,-33.54669 19.93593,-46.28424 3.61624,-4.76121 1.96778,-15.58073 3.73333,-21.30868 1.24286,-4.03217 -8.22914,-12.71349 -2.80083,-15.43791"
           transform="matrix(0.71564,0,0,0.67868,178.86,53.615)"
           inkscape:connector-curvature="0"
           d="m 142.02,360.05 8.6502,5.0173 c 7.8202,-15.39 13.742,-31.609 17.653,-48.188 l 0,-10e-6 c 1.6978,-7.1239 3.0213,-14.538 2.5872,-21.917 -0.3222,-5.361 -1.5917,-10.608 -3.6969,-15.434 1.545,5.0334 2.1811,10.29 1.9048,15.442 -0.37092,7.0954 -2.4683,13.945 -4.8794,20.7 -5.649,15.711 -13.143,30.639 -22.219,44.38 z"
           style="fill:#a40000;fill-rule:evenodd;filter:url(#filter4900)"
           id="path4880" />
        <path
           inkscape:original-d="m 109.35987,362.97886 c -10.717788,-14.50856 8.57393,-24.75062 12.45685,-37.34789 0.86472,-2.8054 6.50921,-5.78985 7.47907,-8.93634 0.98629,-3.19981 -0.36208,-5.24403 -0.51879,-7.5136 -0.0542,-0.78454 2.26203,-4.27309 2.53522,-5.1594 0.74704,-2.42354 -1.26582,-5.09006 -0.5188,-7.5136"
           transform="matrix(0.71564,0,0,0.67868,178.86,53.615)"
           inkscape:connector-curvature="0"
           d="m 104.53,364.28 9.6548,-2.6048 c -2.0022,-5.6204 -2.3382,-12.054 -0.80481,-18.107 1.5266,-6.0553 4.9563,-11.822 9.7984,-16.193 1.4018,-1.2574 3.0902,-2.5407 4.6024,-4.206 1.5555,-1.6593 2.7529,-3.8744 2.9182,-6.3337 l 0,-1e-5 c 0.0447,-1.553 -0.30502,-2.8996 -0.6241,-4.1051 -0.28458,-1.206 -0.56732,-2.328 -0.41256,-3.3638 l 0,-10e-6 c 0.0885,-0.79492 0.45179,-1.6185 0.86493,-2.4623 0.42211,-0.84024 0.91381,-1.7139 1.2619,-2.6775 0.93588,-2.6256 0.49875,-5.5811 -0.99813,-7.7197 1.1992,2.3187 1.1615,5.1475 0.0395,7.3075 -0.41189,0.80367 -0.98188,1.5474 -1.5349,2.3654 -0.56198,0.81439 -1.1018,1.726 -1.4087,2.8136 -0.36413,1.4343 -0.26185,2.8751 -0.0943,4.1524 0.13305,1.2778 0.30399,2.4475 0.0952,3.4058 -0.23691,1.5251 -1.371,2.8812 -2.6603,4.0404 -1.3336,1.1543 -3.0227,2.0829 -4.7773,3.2925 -6.1114,4.1902 -11.043,10.268 -13.915,17.401 -2.8653,7.1348 -3.6246,15.193 -2.0055,22.995 z"
           style="fill:#a40000;fill-rule:evenodd;filter:url(#filter4896)"
           id="path4882" />
        <path
           d="m 73.952,139.3 c 3.3079,5.8041 6.0901,11.865 9.0528,17.844 2.104,4.4959 4.0131,9.1143 7.1955,12.985 2.1559,3.3508 5.1683,5.9338 7.8886,8.7986 2.9661,3.6159 5.8686,7.0786 9.9517,9.4225 4.3216,2.1921 8.7311,4.1752 13.089,6.2965 3.1982,1.1508 6.6733,1.2286 10.007,1.7942 5.0344,1.2386 10.208,1.5665 15.301,2.44 6.2718,1.0017 12.387,2.7132 18.645,3.7872 5.799,0.49834 11.452,1.8882 17.184,2.8196 4.542,0.67096 9.1382,0.77476 13.721,0.85418 5.2798,0.0571 10.56,0.0346 15.84,0.028 10.933,-0.0129 21.866,-0.0128 32.798,-0.0141 14.226,-0.068 28.614,0.62537 42.61,-2.3432 7.627,-2.5153 14.868,-5.8117 21.842,-9.7569 3.0111,-2.9545 5.7795,-6.3128 8.981,-9.2405 3.3123,-2.983 7.6926,-4.8086 10.53,-8.3305 0.87643,-1.088 1.6164,-2.2803 2.475,-3.3825 2.1116,-3.5338 3.935,-7.2172 5.8132,-10.888 1.2151,-2.7838 2.8477,-5.2222 3.3582,-8.2366 1.646,-4.2218 2.35,-8.662 3.4864,-13.016 0.80612,-2.2191 1.308,-4.5039 1.6565,-6.8309 2.9245,-18.019 28.407,-13.883 25.482,4.1359 -0.56137,3.3233 -1.2054,6.6323 -2.3262,9.8216 -1.5839,3.4664 -1.0183,7.9342 -3.0624,11.327 -1.1968,5.1886 -3.2411,9.8961 -5.6407,14.613 -2.6268,5.0819 -5.1521,10.209 -8.4036,14.942 -4.6431,5.9572 -9.7111,11.306 -16.28,15.196 -4.7284,3.7827 -7.6525,9.6651 -13.363,12.362 -9.3261,5.2707 -19.097,9.625 -29.422,12.586 -15.736,3.0859 -31.743,3.069 -47.734,2.8573 -10.923,0.001 -21.846,0.001 -32.769,0.0141 -5.4432,0.007 -10.887,0.0302 -16.33,-0.032 -5.8336,-0.10539 -11.681,-0.29086 -17.456,-1.193 -5.8104,-0.96603 -11.536,-2.3411 -17.415,-2.8587 -6.356,-1.1172 -12.576,-2.7836 -18.94,-3.8404 -5.0077,-1.1215 -10.295,-0.96943 -15.262,-2.4328 -5.5593,-1.2521 -11.5,-1.0635 -16.644,-3.9796 -5.1407,-2.512 -10.37,-4.821 -15.398,-7.5729 -5.884,-3.7789 -11.007,-8.2507 -15.276,-13.819 -3.1189,-3.6322 -7.0303,-6.6302 -9.5544,-10.792 -3.8854,-5.3224 -7.1698,-10.981 -9.7145,-17.069 -2.65,-5.3605 -5.1364,-10.79 -8.0528,-16.014 -9.3918,-15.653 12.745,-28.935 22.137,-13.282 z"
           transform="matrix(0.79415,0,0,0.56224,149.75,69.255)"
           inkscape:connector-curvature="0"
           style="opacity:0.84877996;fill:#a40000;fill-opacity:0.91123998;stroke:#130206;stroke-width:0.1;filter:url(#filter4926)"
           id="path4920" />
        <path
           inkscape:original-d="m 205.65161,165.57082 c 1.12088,2.29373 1.20259,4.90063 2.77121,6.83514 0.92374,1.1392 3.69495,1.70879 4.61869,2.84799 3.30889,4.08066 6.09746,5.29749 12.93232,7.40474 2.04895,0.6317 2.64039,3.33691 3.69496,3.98718 0.56929,0.35102 3.2313,1.137 3.69494,1.70878 1.07338,1.32372 0.79021,3.25291 1.84747,4.55676 2.19294,2.70442 4.04615,5.55946 6.46619,8.54394 0.0565,0.0696 5.93825,3.09208 6.46616,3.41758 0.62773,0.38709 0.73953,2.1648 2.7712,3.41758"
           inkscape:connector-curvature="0"
           d="m 210.65,165.73 -9.9952,-0.30882 c 0.0899,3.998 1.8249,7.6299 4.6932,10.164 2.0836,1.7241 4.1942,2.7051 6.07,3.3323 2.5487,0.92202 4.9197,1.5634 7.0185,2.3943 2.0749,0.8532 3.991,1.8015 5.3544,3.1875 0.51149,0.49139 1.0728,1.2057 1.801,1.9966 0.7114,0.81387 1.6668,1.6397 2.8938,2.2819 0.94024,0.43622 1.7256,0.6337 2.3142,0.77671 0.5668,0.18168 0.98863,0.25989 1.1665,0.40089 0.2824,0.0937 0.53755,0.54068 0.82124,1.1066 0,1e-5 1e-5,1e-5 1e-5,1e-5 0.26089,0.58879 0.44508,1.3807 0.73755,2.2786 1.2982,3.9648 4.1834,7.1621 7.6988,8.8953 2.335,1.1501 4.7388,1.6123 6.7132,2.9102 1.1988,0.78109 2.2346,1.8645 2.9783,3.1489 -0.53988,-1.3825 -1.4187,-2.6604 -2.5641,-3.6863 -1.8944,-1.6842 -4.3382,-2.6077 -6.2191,-3.9249 -2.8116,-1.9696 -4.7421,-5.0483 -5.2336,-8.1926 -0.1149,-0.72024 -0.18788,-1.5853 -0.42777,-2.5882 -0.21704,-1.0256 -0.73573,-2.1345 -1.7084,-3.1401 -0.84811,-0.75766 -1.7117,-1.2219 -2.4292,-1.4992 -0.69575,-0.31601 -1.2284,-0.51371 -1.48,-0.74073 -0.36788,-0.24529 -0.71567,-0.75198 -1.1534,-1.3562 -0.42097,-0.62721 -0.87855,-1.434 -1.5417,-2.3397 l -1e-5,0 c -1.8658,-2.4547 -4.2631,-4.2971 -6.6882,-5.664 l -1e-5,0 c -2.4013,-1.3893 -4.7658,-2.4498 -6.8036,-3.5637 -1.4481,-0.84827 -2.639,-1.5574 -3.1673,-2.3636 -0.76487,-0.98543 -1.0953,-2.4479 -0.84918,-3.506 z"
           style="opacity:0.44390001;fill:#a40000;fill-rule:evenodd"
           id="path4930" />
        <path
           inkscape:original-d="m 187.17687,180.3803 c 8.18059,5.94685 20.16815,12.48362 31.40706,15.9487 4.20104,1.29522 7.6329,6.41539 11.08486,8.54393 2.43,1.49839 0.13294,7.40475 4.6187,7.40475"
           inkscape:connector-curvature="0"
           d="m 189.09,175.76 -3.8284,9.2381 c 11.007,3.4663 21.821,7.8125 32.3,13.008 4.1629,2.085 8.2307,4.2226 11.541,7.3666 2.0702,1.9569 3.8389,4.2971 5.1837,6.9042 -0.87937,-2.7985 -2.2475,-5.4874 -4.0537,-7.9054 -2.901,-3.8664 -6.7908,-6.9355 -10.628,-9.7212 l -1e-5,0 c -9.5991,-7.0287 -19.807,-13.357 -30.514,-18.89 z"
           style="opacity:0.44390001;fill:#a40000;fill-rule:evenodd"
           id="path4932" />
        <path
           inkscape:original-d="m 164.08343,188.35465 c -0.67051,8.743 15.50165,8.98905 23.09344,13.6703 1.69067,1.04251 6.41739,1.10912 8.31363,2.27838 1.92837,1.18909 1.93413,2.38527 2.7712,3.4176 0.28936,0.35683 3.16083,1.37941 3.69496,1.70877 1.46056,0.90061 1.31067,2.51696 2.77123,3.41757"
           inkscape:connector-curvature="0"
           d="m 168.26,185.61 -8.353,5.4979 c 6.7768,8.5477 17.089,13.234 27.093,13.116 1.5835,-0.0163 2.9777,-0.16439 4.2452,-0.0657 1.2446,0.12135 2.4619,0.37183 3.3127,1.0722 0.44808,0.32972 0.87012,0.86641 1.3644,1.4482 0.48119,0.59355 1.062,1.2308 1.8081,1.7317 0.70418,0.44552 1.4271,0.68436 2.108,0.86133 0.67689,0.18433 1.3186,0.3208 1.9009,0.56231 1.2852,0.52367 2.4138,1.6194 2.9883,3.0178 -0.2838,-1.4849 -1.1957,-2.9055 -2.5542,-3.8174 -0.61399,-0.4081 -1.2718,-0.70322 -1.8687,-0.99929 -0.5929,-0.30342 -1.1406,-0.60602 -1.5123,-0.99461 -0.41689,-0.40085 -0.72247,-0.96885 -1.0713,-1.5905 -0.33576,-0.6335 -0.71141,-1.3486 -1.2985,-2.0649 -1.2188,-1.3909 -2.8818,-2.2578 -4.5287,-2.6797 -1.6247,-0.44462 -3.1909,-0.61826 -4.5407,-0.87058 -8.4403,-1.6023 -15.697,-7.3157 -19.093,-14.225 z"
           style="opacity:0.44390001;fill:#a40000;fill-rule:evenodd"
           id="path4934" />
        <path
           inkscape:original-d="m 433.14053,168.9884 c -1.12088,2.29371 -1.20258,4.90062 -2.7712,6.83514 -0.92375,1.1392 -3.69496,1.70879 -4.6187,2.84798 -3.30889,4.08067 -6.09745,5.29749 -12.93232,7.40475 -2.04894,0.6317 -2.64038,3.33691 -3.69496,3.98715 -0.56927,0.35105 -3.23131,1.13702 -3.69495,1.70881 -1.07335,1.32372 -0.79021,3.25289 -1.84748,4.55677 -2.19292,2.70443 -4.04613,5.55945 -6.46616,8.54393 -0.0566,0.0696 -5.93826,3.09206 -6.46616,3.41758 -0.62773,0.38707 -0.73954,2.1648 -2.77119,3.41758"
           inkscape:connector-curvature="0"
           d="m 438.14,168.83 -9.9952,0.30886 c 0.24611,1.0581 -0.0843,2.5206 -0.84917,3.506 -0.52838,0.8063 -1.7192,1.5154 -3.1673,2.3636 l 0,10e-6 c -2.0378,1.1139 -4.4023,2.1744 -6.8036,3.5637 -2.425,1.3669 -4.8224,3.2094 -6.6882,5.664 l -10e-6,0 c -0.66316,0.90568 -1.1207,1.7125 -1.5417,2.3397 -0.43773,0.60419 -0.78552,1.1109 -1.1534,1.3562 -0.25158,0.22703 -0.78421,0.42473 -1.48,0.74075 -0.71752,0.27735 -1.5811,0.74159 -2.4292,1.4992 -0.97263,1.0056 -1.4913,2.1145 -1.7084,3.1401 l 0,1e-5 c -0.23989,1.0029 -0.31287,1.8679 -0.42777,2.5882 -0.49151,3.1442 -2.422,6.223 -5.2335,8.1926 -1.8809,1.3172 -4.3247,2.2407 -6.2191,3.9249 -1.1454,1.0258 -2.0242,2.3038 -2.5641,3.6863 0.74367,-1.2844 1.7795,-2.3678 2.9783,-3.1489 1.9744,-1.298 4.3783,-1.7601 6.7132,-2.9102 3.5154,-1.7332 6.4005,-4.9305 7.6988,-8.8953 0.29248,-0.8979 0.47667,-1.6898 0.73757,-2.2786 0.28369,-0.56592 0.53885,-1.0129 0.82126,-1.1066 0.17785,-0.141 0.59969,-0.21921 1.1665,-0.4009 0.58862,-0.14302 1.374,-0.3405 2.3142,-0.77672 1.227,-0.64226 2.1824,-1.468 2.8938,-2.2819 0.72818,-0.7909 1.2895,-1.5052 1.801,-1.9966 1.3634,-1.386 3.2795,-2.3343 5.3544,-3.1875 2.0988,-0.83094 4.4698,-1.4723 7.0185,-2.3943 1.8758,-0.6272 3.9865,-1.6082 6.0701,-3.3323 2.8684,-2.5344 4.6034,-6.1663 4.6932,-10.164 z"
           style="opacity:0.44390001;fill:#a40000;fill-rule:evenodd"
           id="path4936" />
        <path
           inkscape:original-d="m 211.68952,376.60203 c 1.24254,-4.59393 4.09747,-9.09101 4.39113,-13.34408 0.17294,-2.50453 -2.53522,-5.1594 -2.36229,-7.66393 0.61945,-8.97142 -1.37635,-12.74099 -7.25981,-20.48726 -1.76372,-2.32217 0.58572,-7.29651 0.0463,-9.04638 -0.29116,-0.94462 -2.62201,-3.90233 -2.53522,-5.15941 0.20094,-2.91022 2.72949,-6.02947 2.92743,-8.89606 0.41052,-5.94571 1.40286,-11.94204 1.85591,-18.50348 0.0105,-0.15302 -3.68261,-8.88181 -3.95261,-9.75776 -0.32106,-1.04162 1.55793,-4.14238 0.5188,-7.51359"
           transform="matrix(0.71564,0,0,-0.44128,186.25,319.44)"
           inkscape:connector-curvature="0"
           d="m 208.03,373.19 7.3186,6.8146 c 4.1464,-4.8202 5.9271,-11.16 5.0229,-17.242 -0.55014,-3.334 -1.7266,-6.2508 -3.07,-8.8121 l -1e-5,0 c -1.7968,-3.5038 -3.7936,-6.5524 -5.3088,-9.595 -1.4697,-3.0451 -2.6421,-6.1172 -2.6303,-9.1273 -0.0278,-1.2516 0.17896,-2.7376 0.2521,-4.4373 0.11402,-1.7076 -0.0428,-3.6498 -0.78586,-5.5936 -0.51987,-1.2089 -1.141,-2.1302 -1.6599,-2.8863 -0.48465,-0.77086 -0.91036,-1.3841 -1.0527,-1.9247 -0.35668,-0.86746 -0.1168,-2.1098 0.29845,-3.3852 0.45774,-1.2838 1.2717,-2.6229 2.0221,-4.159 3.0332,-6.1352 3.6066,-13.441 1.1222,-19.629 -1.3763,-3.4013 -3.5328,-6.2357 -4.4079,-9.5491 -0.63997,-2.3933 -0.59357,-5.0079 0.16812,-7.4378 -0.98631,2.3477 -1.3043,5.0102 -0.86948,7.5894 0.61051,3.5597 2.5332,6.7369 3.4973,9.9664 1.763,5.8448 0.4974,12.315 -2.5896,17.377 l 0,1e-5 c -0.78605,1.2748 -1.7673,2.6147 -2.5793,4.2719 -0.85426,1.6649 -1.339,3.7276 -0.95501,5.976 0.30226,1.3298 0.82327,2.4249 1.3239,3.3048 0.4664,0.89466 0.88743,1.6086 1.0339,2.2031 0.31162,0.91056 0.21203,2.0965 0.0688,3.421 -0.18414,1.3326 -0.53565,2.8522 -0.69514,4.6408 -0.30542,4.3112 0.69329,8.4649 2.1684,12.13 l 0,1e-5 c 1.4298,3.6684 3.1604,6.9612 4.4122,10.122 l 0,1e-5 c 0.88997,2.3211 1.5943,4.5156 1.6545,6.5158 0.1935,3.5109 -1.3258,7.1994 -3.7594,9.4458 z"
           style="opacity:0.44390001;fill:#a40000;fill-rule:evenodd;filter:url(#filter4916)"
           id="path4938" />
        <path
           inkscape:original-d="m 250.82663,362.55737 c -3.16145,-15.11403 -10.26147,-33.54669 -19.93593,-46.28424 -3.61624,-4.76121 -1.96778,-15.58073 -3.73333,-21.30868 -1.24286,-4.03217 8.22914,-12.71349 2.80083,-15.43791"
           transform="matrix(0.71564,0,0,-0.44128,186.25,319.44)"
           inkscape:connector-curvature="0"
           d="m 246.5,365.07 8.6502,-5.0173 c -9.0761,-13.741 -16.57,-28.669 -22.219,-44.38 -2.4112,-6.7555 -4.5085,-13.605 -4.8794,-20.7 -0.27632,-5.1523 0.35976,-10.408 1.9048,-15.442 -2.1052,4.826 -3.3747,10.073 -3.6969,15.434 -0.43408,7.3794 0.88942,14.793 2.5872,21.917 l 0,10e-6 c 3.9106,16.579 9.8328,32.799 17.653,48.188 z"
           style="opacity:0.44390001;fill:#a40000;fill-rule:evenodd;filter:url(#filter4912)"
           id="path4940" />
        <path
           inkscape:original-d="m 287.8083,362.97886 c 10.71779,-14.50856 -8.57393,-24.75062 -12.45685,-37.34789 -0.86472,-2.8054 -6.50921,-5.78985 -7.47907,-8.93634 -0.98629,-3.19981 0.36208,-5.24403 0.51879,-7.5136 0.0542,-0.78454 -2.26203,-4.27309 -2.53522,-5.1594 -0.74704,-2.42354 1.26582,-5.09006 0.5188,-7.5136"
           transform="matrix(0.71564,0,0,-0.44128,186.25,319.44)"
           inkscape:connector-curvature="0"
           d="m 282.98,361.68 9.6548,2.6048 c 1.6191,-7.8018 0.85974,-15.86 -2.0055,-22.995 -2.872,-7.1326 -7.8033,-13.21 -13.915,-17.401 -1.7545,-1.2096 -3.4436,-2.1382 -4.7773,-3.2925 -1.2893,-1.1593 -2.4234,-2.5154 -2.6603,-4.0404 -0.20877,-0.95835 -0.0378,-2.1281 0.0952,-3.4058 0.16755,-1.2773 0.26983,-2.718 -0.0943,-4.1524 -0.30692,-1.0876 -0.84673,-1.9992 -1.4087,-2.8136 -0.55304,-0.81798 -1.123,-1.5617 -1.5349,-2.3654 -1.122,-2.16 -1.1598,-4.9888 0.0395,-7.3075 -1.4969,2.1386 -1.934,5.0942 -0.99813,7.7197 0.34807,0.96355 0.83977,1.8372 1.2619,2.6775 0.41314,0.84381 0.77638,1.6674 0.86493,2.4623 l 0,10e-6 c 0.15476,1.0358 -0.12798,2.1579 -0.41256,3.3638 -0.31908,1.2056 -0.66884,2.5521 -0.6241,4.1051 0.1653,2.4594 1.3627,4.6744 2.9182,6.3337 1.5122,1.6653 3.2006,2.9487 4.6024,4.206 4.8421,4.3708 8.2717,10.138 9.7984,16.193 1.5334,6.0531 1.1974,12.487 -0.80481,18.107 z"
           style="opacity:0.44390001;fill:#a40000;fill-rule:evenodd;filter:url(#filter4908)"
           id="path4942" />
        <path
           inkscape:original-d="m 185.47865,376.60203 c -1.24254,-4.59393 -4.09747,-9.09101 -4.39113,-13.34408 -0.17294,-2.50453 2.53522,-5.1594 2.36229,-7.66393 -0.61945,-8.97142 1.37635,-12.74099 7.25981,-20.48726 1.76372,-2.32217 -0.58572,-7.29651 -0.0463,-9.04638 0.29116,-0.94462 2.62201,-3.90233 2.53522,-5.15941 -0.20094,-2.91022 -2.72949,-6.02947 -2.92743,-8.89606 -0.41052,-5.94571 -1.40286,-11.94204 -1.85591,-18.50348 -0.0105,-0.15302 3.68261,-8.88181 3.95261,-9.75776 0.32106,-1.04162 -1.55793,-4.14238 -0.5188,-7.51359"
           transform="matrix(0.71564,0,0,-0.44128,186.25,319.44)"
           inkscape:connector-curvature="0"
           d="m 181.82,380.01 7.3186,-6.8146 c -2.4336,-2.2464 -3.9529,-5.9349 -3.7594,-9.4458 0.0602,-2.0002 0.76457,-4.1946 1.6545,-6.5158 l 0,-10e-6 c 1.2518,-3.1607 2.9823,-6.4535 4.4122,-10.122 1.4751,-3.6654 2.4738,-7.8191 2.1684,-12.13 -0.15949,-1.7887 -0.511,-3.3083 -0.69514,-4.6408 -0.14325,-1.3245 -0.24284,-2.5104 0.0688,-3.421 0.14645,-0.59445 0.56748,-1.3084 1.0339,-2.2031 0.50067,-0.87987 1.0217,-1.975 1.3239,-3.3048 0.38403,-2.2484 -0.10075,-4.311 -0.95501,-5.976 -0.81206,-1.6572 -1.7933,-2.9971 -2.5793,-4.2719 l 0,-1e-5 c -3.087,-5.0625 -4.3526,-11.533 -2.5896,-17.377 0.96416,-3.2296 2.8868,-6.4068 3.4973,-9.9664 0.43481,-2.5792 0.11683,-5.2417 -0.86948,-7.5894 0.76169,2.4299 0.80809,5.0444 0.16812,7.4378 -0.87504,3.3134 -3.0316,6.1478 -4.4079,9.5491 -2.4844,6.1887 -1.911,13.494 1.1222,19.629 0.75032,1.5361 1.5643,2.8752 2.0221,4.159 0.41525,1.2754 0.65513,2.5178 0.29845,3.3852 -0.14237,0.54053 -0.56808,1.1538 -1.0527,1.9247 -0.51893,0.7561 -1.14,1.6775 -1.6599,2.8863 -0.74307,1.9438 -0.89988,3.8861 -0.78586,5.5936 l 0,10e-6 c 0.0731,1.6997 0.27987,3.1856 0.2521,4.4372 0.0118,3.0102 -1.1606,6.0822 -2.6303,9.1273 -1.5151,3.0426 -3.5119,6.0911 -5.3088,9.595 l -1e-5,0 c -1.3435,2.5613 -2.5199,5.478 -3.07,8.8121 -0.90423,6.0822 0.87653,12.422 5.0229,17.242 z"
           style="opacity:0.44390001;fill:#a40000;fill-rule:evenodd;filter:url(#filter4904)"
           id="path4944" />
        <path
           inkscape:original-d="m 146.34154,362.55737 c 3.16145,-15.11403 10.26147,-33.54669 19.93593,-46.28424 3.61624,-4.76121 1.96778,-15.58073 3.73333,-21.30868 1.24286,-4.03217 -8.22914,-12.71349 -2.80083,-15.43791"
           transform="matrix(0.71564,0,0,-0.44128,186.25,319.44)"
           inkscape:connector-curvature="0"
           d="m 142.02,360.05 8.6502,5.0173 c 7.8202,-15.39 13.742,-31.609 17.653,-48.188 l 0,-10e-6 c 1.6978,-7.1239 3.0213,-14.538 2.5872,-21.917 -0.3222,-5.361 -1.5917,-10.608 -3.6969,-15.434 1.545,5.0334 2.1811,10.29 1.9048,15.442 -0.37092,7.0954 -2.4683,13.945 -4.8794,20.7 -5.649,15.711 -13.143,30.639 -22.219,44.38 z"
           style="opacity:0.44390001;fill:#a40000;fill-rule:evenodd;filter:url(#filter4900)"
           id="path4946" />
        <path
           inkscape:original-d="m 109.35987,362.97886 c -10.717788,-14.50856 8.57393,-24.75062 12.45685,-37.34789 0.86472,-2.8054 6.50921,-5.78985 7.47907,-8.93634 0.98629,-3.19981 -0.36208,-5.24403 -0.51879,-7.5136 -0.0542,-0.78454 2.26203,-4.27309 2.53522,-5.1594 0.74704,-2.42354 -1.26582,-5.09006 -0.5188,-7.5136"
           transform="matrix(0.71564,0,0,-0.44128,186.25,319.44)"
           inkscape:connector-curvature="0"
           d="m 104.53,364.28 9.6548,-2.6048 c -2.0022,-5.6204 -2.3382,-12.054 -0.80481,-18.107 1.5266,-6.0553 4.9563,-11.822 9.7984,-16.193 1.4018,-1.2574 3.0902,-2.5407 4.6024,-4.206 1.5555,-1.6593 2.7529,-3.8744 2.9182,-6.3337 l 0,-1e-5 c 0.0447,-1.553 -0.30502,-2.8996 -0.6241,-4.1051 -0.28458,-1.206 -0.56732,-2.328 -0.41256,-3.3638 l 0,-10e-6 c 0.0885,-0.79492 0.45179,-1.6185 0.86493,-2.4623 0.42211,-0.84024 0.91381,-1.7139 1.2619,-2.6775 0.93588,-2.6256 0.49875,-5.5811 -0.99813,-7.7197 1.1992,2.3187 1.1615,5.1475 0.0395,7.3075 -0.41189,0.80367 -0.98188,1.5474 -1.5349,2.3654 -0.56198,0.81439 -1.1018,1.726 -1.4087,2.8136 -0.36413,1.4343 -0.26185,2.8751 -0.0943,4.1524 0.13305,1.2778 0.30399,2.4475 0.0952,3.4058 -0.23691,1.5251 -1.371,2.8812 -2.6603,4.0404 -1.3336,1.1543 -3.0227,2.0829 -4.7773,3.2925 -6.1114,4.1902 -11.043,10.268 -13.915,17.401 -2.8653,7.1348 -3.6246,15.193 -2.0055,22.995 z"
           style="opacity:0.44390001;fill:#a40000;fill-rule:evenodd;filter:url(#filter4896)"
           id="path4948" />
      </g>
    </g>
  </g>
</svg>
